<svg width="43" height="64" viewBox="0 0 43 64" fill="none" xmlns="http://www.w3.org/2000/svg">
<path d="M42.9769 64C42.762 64 42.6015 64 42.441 64C28.5059 64 14.5707 64 0.636586 64C0.00140289 64 0.000432318 63.9991 0.000432318 63.3883C0.000432318 55.7339 -0.00151739 48.0786 0.00820977 40.4243C0.00820977 40.1679 0.0558724 39.8726 0.190107 39.662C2.33981 36.2984 4.50702 32.9452 6.67131 29.5902C6.71314 29.5254 6.76372 29.4663 6.86294 29.3358C8.30256 31.5093 9.71494 33.6437 11.1701 35.84C11.2917 35.6704 11.3831 35.5504 11.4658 35.4246C13.9472 31.6846 16.4257 27.9418 18.9139 24.2065C19.0608 23.9864 19.0695 23.8416 18.9207 23.6186C15.2866 18.1511 11.6594 12.6788 8.0302 7.20746C7.98059 7.13218 7.91541 7.06643 7.81425 6.94256C5.22488 10.674 2.66373 14.3663 0.0364223 18.153C0.0159953 17.9548 0.000432318 17.87 0.000432318 17.7842C-0.000540397 12.0671 0.000432318 6.34988 0.000432318 0.632701C0.000432318 0 0.00140266 0 0.618104 0C14.5532 0 28.4883 0 42.4225 0C42.5966 0 42.7707 0 42.974 0C42.974 6.05449 42.974 12.0509 42.974 18.0482C42.9478 18.0682 42.9225 18.0892 42.8962 18.1092C40.2319 14.4035 37.5686 10.6987 34.8616 6.93303C34.7303 7.11693 34.6291 7.25129 34.5357 7.39136C30.9581 12.7817 27.3814 18.1721 23.8018 23.5614C23.6647 23.7673 23.5742 23.9235 23.7522 24.1903C26.2822 27.9751 28.7957 31.7713 31.3151 35.5637C31.3656 35.6399 31.4279 35.7095 31.5203 35.8286C32.9667 33.6618 34.3918 31.5293 35.8606 29.3291C35.9977 29.5245 36.1057 29.6702 36.2059 29.8208C38.4256 33.1406 40.6463 36.4604 42.8583 39.7849C42.9468 39.9183 42.9945 40.1041 42.9945 40.2651C43.0013 48.0472 43.0003 55.8292 42.9993 63.6103C43.0003 63.718 42.9876 63.8256 42.9769 64ZM21.3476 51.6299C21.44 51.5061 21.4809 51.4575 21.5149 51.4051C24.0683 47.4288 26.6168 43.4496 29.1799 39.48C29.358 39.2046 29.2831 39.0321 29.1294 38.8044C27.5429 36.4451 25.9632 34.082 24.3815 31.7199C23.3874 30.2353 22.3933 28.7507 21.3749 27.23C21.2727 27.3605 21.1901 27.4529 21.121 27.5549C18.5958 31.3035 16.0765 35.0558 13.5406 38.7977C13.3471 39.0836 13.3607 39.2723 13.5435 39.5533C15.9345 43.2362 18.3108 46.9276 20.6911 50.617C20.8982 50.9363 21.1054 51.2545 21.3476 51.6299Z" fill="white"/>
</svg>
