<svg width="32" height="32" viewBox="0 0 32 32" fill="none" xmlns="http://www.w3.org/2000/svg">
<rect width="32" height="32" rx="16" fill="white"/>
<path d="M16 12.75C15.138 12.75 14.3114 13.0924 13.7019 13.7019C13.0924 14.3114 12.75 15.138 12.75 16C12.75 16.862 13.0924 17.6886 13.7019 18.2981C14.3114 18.9076 15.138 19.25 16 19.25C16.862 19.25 17.6886 18.9076 18.2981 18.2981C18.9076 17.6886 19.25 16.862 19.25 16C19.25 15.138 18.9076 14.3114 18.2981 13.7019C17.6886 13.0924 16.862 12.75 16 12.75Z" fill="#30B1E8"/>
<path fillRule="evenodd" clipRule="evenodd" d="M10.7708 7.08194C14.2468 6.69664 17.7548 6.69664 21.2308 7.08194C23.1298 7.29394 24.6608 8.78894 24.8838 10.6949C25.296 14.2196 25.296 17.7803 24.8838 21.3049C24.6608 23.2109 23.1298 24.7059 21.2318 24.9189C17.7554 25.3043 14.2471 25.3043 10.7708 24.9189C8.8718 24.7059 7.3408 23.2109 7.1178 21.3059C6.70553 17.781 6.70553 14.2199 7.1178 10.6949C7.3408 8.78894 8.8718 7.29394 10.7708 7.08194ZM21.0008 9.99994C20.7356 9.99994 20.4812 10.1053 20.2937 10.2928C20.1062 10.4804 20.0008 10.7347 20.0008 10.9999C20.0008 11.2652 20.1062 11.5195 20.2937 11.707C20.4812 11.8946 20.7356 11.9999 21.0008 11.9999C21.266 11.9999 21.5204 11.8946 21.7079 11.707C21.8954 11.5195 22.0008 11.2652 22.0008 10.9999C22.0008 10.7347 21.8954 10.4804 21.7079 10.2928C21.5204 10.1053 21.266 9.99994 21.0008 9.99994ZM11.2508 15.9999C11.2508 14.7402 11.7512 13.532 12.642 12.6412C13.5328 11.7504 14.741 11.2499 16.0008 11.2499C17.2606 11.2499 18.4688 11.7504 19.3596 12.6412C20.2504 13.532 20.7508 14.7402 20.7508 15.9999C20.7508 17.2597 20.2504 18.4679 19.3596 19.3587C18.4688 20.2495 17.2606 20.7499 16.0008 20.7499C14.741 20.7499 13.5328 20.2495 12.642 19.3587C11.7512 18.4679 11.2508 17.2597 11.2508 15.9999Z" fill="#30B1E8"/>
</svg>
