<svg width="32" height="32" viewBox="0 0 32 32" fill="none" xmlns="http://www.w3.org/2000/svg">
<rect width="32" height="32" rx="16" fill="white"/>
<path d="M26 11.4199C25.91 13.3699 24.55 16.0399 21.92 19.4399C19.2 22.9999 16.9 24.7499 15 24.7499C13.85 24.7499 12.86 23.6699 12.05 21.4999C11.5 19.5399 11 17.5599 10.44 15.5799C9.84 13.4199 9.2 12.3399 8.5 12.3399C8.36 12.3399 7.84 12.6599 6.94 13.2899L6 12.0699C7 11.1999 7.96 10.3299 8.92 9.45991C10.24 8.31991 11.23 7.71991 11.88 7.65991C13.44 7.49991 14.4 8.57991 14.76 10.8599C15.15 13.3299 15.42 14.8599 15.57 15.4599C16 17.4999 16.5 18.4999 17.05 18.4999C17.47 18.4999 18.1 17.8599 18.94 16.5299C19.78 15.2099 20.23 14.1999 20.29 13.4999C20.41 12.3599 19.96 11.7899 18.94 11.7899C18.46 11.7899 17.97 11.8999 17.46 12.1199C18.44 8.88991 20.32 7.31991 23.09 7.40991C25.15 7.46991 26.12 8.80991 26 11.4199Z" fill="#30B1E8"/>
</svg>
