<svg width="32" height="32" viewBox="0 0 32 32" fill="none" xmlns="http://www.w3.org/2000/svg">
<rect width="32" height="32" rx="16" fill="white"/>
<path fill-rule="evenodd" clip-rule="evenodd" d="M10.9898 8.88907C14.3254 8.62812 17.6762 8.62812 21.0118 8.88907L23.2518 9.06507C23.8585 9.11237 24.4319 9.36138 24.8806 9.77241C25.3294 10.1834 25.6276 10.7329 25.7278 11.3331C26.2448 14.4231 26.2448 17.5761 25.7278 20.6651C25.6276 21.2651 25.3296 21.8144 24.881 22.2254C24.4325 22.6365 23.8593 22.8856 23.2528 22.9331L21.0128 23.1081C17.6769 23.3691 14.3257 23.3691 10.9898 23.1081L8.74982 22.9331C8.14313 22.8858 7.56973 22.6368 7.121 22.2257C6.67227 21.8147 6.37403 21.2653 6.27382 20.6651C5.75769 17.5758 5.75769 14.4223 6.27382 11.3331C6.37399 10.733 6.67208 10.1837 7.12061 9.7727C7.56914 9.36169 8.14231 9.11258 8.74882 9.06507L10.9898 8.88907ZM14.0008 18.4691V13.5291C14.0009 13.4761 14.015 13.424 14.0418 13.3782C14.0685 13.3325 14.1069 13.2946 14.153 13.2685C14.1992 13.2423 14.2514 13.2289 14.3044 13.2296C14.3574 13.2302 14.4093 13.2449 14.4548 13.2721L18.5718 15.7421C18.6161 15.7688 18.6528 15.8064 18.6782 15.8515C18.7037 15.8965 18.7171 15.9473 18.7171 15.9991C18.7171 16.0508 18.7037 16.1016 18.6782 16.1467C18.6528 16.1917 18.6161 16.2294 18.5718 16.2561L14.4548 18.7261C14.4093 18.7533 14.3574 18.768 14.3044 18.7686C14.2514 18.7692 14.1992 18.7558 14.153 18.7297C14.1069 18.7036 14.0685 18.6657 14.0418 18.6199C14.015 18.5741 14.0009 18.5221 14.0008 18.4691Z" fill="#30B1E8"/>
</svg>
