<svg width="64" height="64" viewBox="0 0 64 64" fill="none" xmlns="http://www.w3.org/2000/svg">
<path d="M32.0003 31.9993C29.067 31.9993 26.5559 30.9549 24.467 28.866C22.3781 26.7771 21.3337 24.266 21.3337 21.3327C21.3337 18.3993 22.3781 15.8882 24.467 13.7993C26.5559 11.7105 29.067 10.666 32.0003 10.666C34.9337 10.666 37.4448 11.7105 39.5337 13.7993C41.6225 15.8882 42.667 18.3993 42.667 21.3327C42.667 24.266 41.6225 26.7771 39.5337 28.866C37.4448 30.9549 34.9337 31.9993 32.0003 31.9993ZM10.667 53.3327V45.866C10.667 44.3549 11.0563 42.9665 11.835 41.7007C12.6137 40.4349 13.6465 39.4678 14.9337 38.7993C17.6892 37.4216 20.4892 36.3887 23.3337 35.7007C26.1781 35.0127 29.067 34.6678 32.0003 34.666C34.9337 34.6642 37.8225 35.0091 40.667 35.7007C43.5114 36.3922 46.3114 37.4251 49.067 38.7993C50.3559 39.466 51.3897 40.4331 52.1683 41.7007C52.947 42.9682 53.3354 44.3567 53.3337 45.866V53.3327H10.667ZM16.0003 47.9993H48.0003V45.866C48.0003 45.3771 47.8786 44.9327 47.635 44.5327C47.3914 44.1327 47.0688 43.8216 46.667 43.5993C44.267 42.3993 41.8448 41.4998 39.4003 40.9007C36.9559 40.3016 34.4892 40.0011 32.0003 39.9993C29.5114 39.9976 27.0448 40.298 24.6003 40.9007C22.1559 41.5033 19.7337 42.4029 17.3337 43.5993C16.9337 43.8216 16.611 44.1327 16.3657 44.5327C16.1203 44.9327 15.9985 45.3771 16.0003 45.866V47.9993ZM32.0003 26.666C33.467 26.666 34.723 26.1442 35.7683 25.1007C36.8137 24.0571 37.3354 22.8011 37.3337 21.3327C37.3319 19.8642 36.8101 18.6091 35.7683 17.5673C34.7265 16.5256 33.4705 16.0029 32.0003 15.9993C30.5301 15.9958 29.275 16.5185 28.235 17.5673C27.195 18.6162 26.6723 19.8713 26.667 21.3327C26.6617 22.794 27.1843 24.05 28.235 25.1007C29.2857 26.1513 30.5408 26.6731 32.0003 26.666Z" fill="#4D4D4D"/>
</svg>
