<svg width="64" height="64" viewBox="0 0 64 64" fill="none" xmlns="http://www.w3.org/2000/svg">
<path fillRule="evenodd" clipRule="evenodd" d="M9.5 14C8.67157 14 8 14.6716 8 15.5V18.5C8 19.3284 8.67157 20 9.5 20H12.5C13.3284 20 14 19.3284 14 18.5V15.5C14 14.6716 13.3284 14 12.5 14H9.5ZM12.5 24C13.3284 24 14 24.6716 14 25.5V28.5C14 29.3284 13.3284 30 12.5 30H9.5C8.67157 30 8 29.3284 8 28.5V25.5C8 24.6716 8.67157 24 9.5 24H12.5ZM19.5 34C18.6716 34 18 34.6716 18 35.5V38.5V45.5V48.5C18 49.3284 18.6716 50 19.5 50H44.5C45.3284 50 46 49.3284 46 48.5V45.5V38.5V35.5C46 34.6716 45.3284 34 44.5 34H19.5ZM44.5 10H19.5H12.5H9.5C6.46243 10 4 12.4624 4 15.5V18.5V25.5V28.5V35.5V38.5V45.5V48.5C4 51.5376 6.46243 54 9.5 54H12.5H19.5H44.5H51.5H54.5C57.5376 54 60 51.5376 60 48.5V45.5V38.5V35.5V28.5V25.5V18.5V15.5C60 12.4624 57.5376 10 54.5 10H51.5H44.5ZM50 48.5C50 49.3284 50.6716 50 51.5 50H54.5C55.3284 50 56 49.3284 56 48.5V45.5C56 44.6716 55.3284 44 54.5 44H51.5C50.6716 44 50 44.6716 50 45.5V48.5ZM50 38.5C50 39.3284 50.6716 40 51.5 40H54.5C55.3284 40 56 39.3284 56 38.5V35.5C56 34.6716 55.3284 34 54.5 34H51.5C50.6716 34 50 34.6716 50 35.5V38.5ZM14 48.5V45.5C14 44.6716 13.3284 44 12.5 44H9.5C8.67157 44 8 44.6716 8 45.5V48.5C8 49.3284 8.67157 50 9.5 50H12.5C13.3284 50 14 49.3284 14 48.5ZM14 38.5C14 39.3284 13.3284 40 12.5 40H9.5C8.67157 40 8 39.3284 8 38.5V35.5C8 34.6716 8.67157 34 9.5 34H12.5C13.3284 34 14 34.6716 14 35.5V38.5ZM50 18.5V15.5C50 14.6716 50.6716 14 51.5 14H54.5C55.3284 14 56 14.6716 56 15.5V18.5C56 19.3284 55.3284 20 54.5 20H51.5C50.6716 20 50 19.3284 50 18.5ZM50 28.5V25.5C50 24.6716 50.6716 24 51.5 24H54.5C55.3284 24 56 24.6716 56 25.5V28.5C56 29.3284 55.3284 30 54.5 30H51.5C50.6716 30 50 29.3284 50 28.5ZM18 15.5C18 14.6716 18.6716 14 19.5 14H44.5C45.3284 14 46 14.6716 46 15.5V18.5V25.5V28.5C46 29.3284 45.3284 30 44.5 30H19.5C18.6716 30 18 29.3284 18 28.5V25.5V18.5V15.5Z" fill="#4D4D4D"/>
</svg>
