<svg width="64" height="64" viewBox="0 0 64 64" fill="none" xmlns="http://www.w3.org/2000/svg">
<path d="M31.9997 46.6C36.3997 43.0444 39.7223 39.6222 41.9677 36.3333C44.213 33.0444 45.3348 29.9556 45.333 27.0667C45.333 23.0667 44.0886 19.7778 41.5997 17.2C39.1108 14.6222 35.9108 13.3333 31.9997 13.3333C28.0886 13.3333 24.8886 14.6222 22.3997 17.2C19.9108 19.7778 18.6663 23.0667 18.6663 27.0667C18.6663 29.9556 19.789 33.0444 22.0343 36.3333C24.2797 39.6222 27.6015 43.0444 31.9997 46.6ZM31.9997 53.3333C25.733 48.7111 21.0557 44.2222 17.9677 39.8667C14.8797 35.5111 13.3348 31.2444 13.333 27.0667C13.333 21.5111 15.0663 16.9449 18.533 13.368C21.9997 9.79111 26.4886 8.00178 31.9997 8C37.5108 7.99822 41.9997 9.78756 45.4663 13.368C48.933 16.9484 50.6663 21.5147 50.6663 27.0667C50.6663 31.2444 49.1223 35.5111 46.0343 39.8667C42.9463 44.2222 38.2681 48.7111 31.9997 53.3333ZM31.9997 32C33.4663 32 34.7223 31.4782 35.7677 30.4347C36.813 29.3911 37.3348 28.1351 37.333 26.6667C37.3312 25.1982 36.8095 23.9431 35.7677 22.9013C34.7259 21.8596 33.4699 21.3369 31.9997 21.3333C30.5295 21.3298 29.2743 21.8524 28.2343 22.9013C27.1943 23.9502 26.6717 25.2053 26.6663 26.6667C26.661 28.128 27.1837 29.384 28.2343 30.4347C29.285 31.4853 30.5401 32.0071 31.9997 32Z" fill="#4D4D4D"/>
</svg>
