<svg width="32" height="32" viewBox="0 0 32 32" fill="none" xmlns="http://www.w3.org/2000/svg">
<rect width="32" height="32" rx="16" fill="white"/>
<path d="M16 12.75C15.138 12.75 14.3114 13.0924 13.7019 13.7019C13.0924 14.3114 12.75 15.138 12.75 16C12.75 16.862 13.0924 17.6886 13.7019 18.2981C14.3114 18.9076 15.138 19.25 16 19.25C16.862 19.25 17.6886 18.9076 18.2981 18.2981C18.9076 17.6886 19.25 16.862 19.25 16C19.25 15.138 18.9076 14.3114 18.2981 13.7019C17.6886 13.0924 16.862 12.75 16 12.75Z" fill="#008FCD"/>
<path fillRule="evenodd" clipRule="evenodd" d="M10.7698 7.08194C14.2458 6.69664 17.7538 6.69664 21.2298 7.08194C23.1288 7.29394 24.6598 8.78894 24.8828 10.6949C25.295 14.2196 25.295 17.7803 24.8828 21.3049C24.6598 23.2109 23.1288 24.7059 21.2308 24.9189C17.7545 25.3043 14.2462 25.3043 10.7698 24.9189C8.87082 24.7059 7.33982 23.2109 7.11682 21.3059C6.70455 17.781 6.70455 14.2199 7.11682 10.6949C7.33982 8.78894 8.87082 7.29394 10.7698 7.08194ZM20.9998 9.99994C20.7346 9.99994 20.4802 10.1053 20.2927 10.2928C20.1052 10.4804 19.9998 10.7347 19.9998 10.9999C19.9998 11.2652 20.1052 11.5195 20.2927 11.707C20.4802 11.8946 20.7346 11.9999 20.9998 11.9999C21.265 11.9999 21.5194 11.8946 21.7069 11.707C21.8945 11.5195 21.9998 11.2652 21.9998 10.9999C21.9998 10.7347 21.8945 10.4804 21.7069 10.2928C21.5194 10.1053 21.265 9.99994 20.9998 9.99994ZM11.2498 15.9999C11.2498 14.7402 11.7503 13.532 12.6411 12.6412C13.5319 11.7504 14.74 11.2499 15.9998 11.2499C17.2596 11.2499 18.4678 11.7504 19.3586 12.6412C20.2494 13.532 20.7498 14.7402 20.7498 15.9999C20.7498 17.2597 20.2494 18.4679 19.3586 19.3587C18.4678 20.2495 17.2596 20.7499 15.9998 20.7499C14.74 20.7499 13.5319 20.2495 12.6411 19.3587C11.7503 18.4679 11.2498 17.2597 11.2498 15.9999Z" fill="#008FCD"/>
</svg>
