<svg width="32" height="32" viewBox="0 0 32 32" fill="none" xmlns="http://www.w3.org/2000/svg">
<rect width="32" height="32" rx="16" fill="white"/>
<mask id="mask0_7_245" style="mask-type:luminance" maskUnits="userSpaceOnUse" x="7" y="7" width="18" height="18">
<path d="M20.6364 7H11.3636C8.95367 7 7 8.95367 7 11.3636V20.6364C7 23.0463 8.95367 25 11.3636 25H20.6364C23.0463 25 25 23.0463 25 20.6364V11.3636C25 8.95367 23.0463 7 20.6364 7Z" fill="white"/>
</mask>
<g mask="url(#mask0_7_245)">
<path d="M18.118 15.5891H12.8002V13.4847H18.118C18.4286 13.4847 18.6446 13.5389 18.753 13.6334C18.8614 13.728 18.9286 13.9033 18.9286 14.1595V14.9151C18.9286 15.185 18.8614 15.3604 18.753 15.4549C18.6446 15.5495 18.4286 15.5899 18.118 15.5899V15.5891ZM18.4829 11.5008H10.5449V20.5H12.8002V17.5722H16.9564L18.9286 20.5H21.454L19.2796 17.5585C20.0813 17.4397 20.4412 17.194 20.7381 16.7891C21.035 16.3843 21.1839 15.737 21.1839 14.8731V14.1983C21.1839 13.686 21.1296 13.2811 21.035 12.9708C20.9403 12.6605 20.7786 12.3906 20.5488 12.1481C20.3062 11.9186 20.036 11.757 19.7116 11.6487C19.3872 11.5542 18.982 11.5 18.4829 11.5V11.5008Z" fill="#008FCD"/>
<path d="M34 7C34 11.9706 29.9706 16 25 16C23.9894 16 23.0178 15.8334 22.111 15.5263C22.1304 15.3124 22.139 15.0937 22.139 14.8731V14.1983C22.139 13.6254 22.0791 13.1203 21.9486 12.6923C21.8077 12.2307 21.5664 11.8335 21.2422 11.4915L21.2242 11.4726L21.2053 11.4546C20.86 11.128 20.4686 10.8949 20.0144 10.7433L19.9969 10.7374L19.9793 10.7323C19.5469 10.6063 19.0478 10.5455 18.4834 10.5455H17.5288V10.5463H16.7256C16.2586 9.45805 16 8.25923 16 7C16 2.02944 20.0294 -2 25 -2C29.9706 -2 34 2.02944 34 7Z" fill="#008FCD"/>
</g>
<path fillRule="evenodd" clipRule="evenodd" d="M11.3636 8.27273C9.10429 8.27273 8.27273 9.10429 8.27273 11.3636V20.6364C8.27273 22.8957 9.10429 23.7273 11.3636 23.7273H20.6364C22.8957 23.7273 23.7273 22.8957 23.7273 20.6364V11.3636C23.7273 9.10429 22.8957 8.27273 20.6364 8.27273H11.3636ZM7 11.3636C7 8.95367 8.95367 7 11.3636 7H20.6364C23.0463 7 25 8.95367 25 11.3636V20.6364C25 23.0463 23.0463 25 20.6364 25H11.3636C8.95367 25 7 23.0463 7 20.6364V11.3636Z" fill="#008FCD"/>
</svg>
