<svg width="32" height="32" viewBox="0 0 32 32" fill="none" xmlns="http://www.w3.org/2000/svg">
<rect width="32" height="32" rx="16" fill="white"/>
<path fill-rule="evenodd" clip-rule="evenodd" d="M22.483 23.7902V23.7882L22.501 23.7452L25.5 8.62518V8.57718C25.5 8.20018 25.36 7.87118 25.058 7.67418C24.793 7.50118 24.488 7.48918 24.274 7.50518C24.0748 7.5232 23.8782 7.56345 23.688 7.62518C23.6068 7.65133 23.5268 7.68069 23.448 7.71318L23.435 7.71818L6.71497 14.2772L6.70997 14.2792C6.65914 14.2965 6.60938 14.3169 6.56097 14.3402C6.44206 14.3936 6.32797 14.4572 6.21997 14.5302C6.00497 14.6782 5.59597 15.0262 5.66497 15.5782C5.72197 16.0362 6.03697 16.3262 6.24997 16.4772C6.3757 16.5653 6.51087 16.6391 6.65297 16.6972L6.68497 16.7112L6.69497 16.7142L6.70197 16.7172L9.62797 17.7022C9.61797 17.8852 9.63597 18.0722 9.68497 18.2572L11.15 23.8162C11.23 24.1192 11.4029 24.3895 11.6445 24.5892C11.886 24.7889 12.1841 24.9079 12.4967 24.9296C12.8094 24.9512 13.121 24.8743 13.3877 24.7098C13.6545 24.5453 13.863 24.3013 13.984 24.0122L16.272 21.5662L20.201 24.5782L20.257 24.6022C20.614 24.7582 20.947 24.8072 21.252 24.7662C21.557 24.7242 21.799 24.5962 21.981 24.4512C22.1915 24.2805 22.3593 24.0631 22.471 23.8162L22.479 23.7992L22.482 23.7932L22.483 23.7902ZM11.135 17.8752C11.1187 17.8135 11.1226 17.7483 11.146 17.6889C11.1694 17.6296 11.211 17.5792 11.265 17.5452L21.186 11.2452C21.186 11.2452 21.77 10.8902 21.749 11.2452C21.749 11.2452 21.853 11.3072 21.54 11.5982C21.244 11.8752 14.469 18.4162 13.783 19.0782C13.7448 19.1152 13.7181 19.1624 13.706 19.2142L12.6 23.4342L11.135 17.8752Z" fill="#008FCD"/>
</svg>
