<svg width="32" height="32" viewBox="0 0 32 32" fill="none" xmlns="http://www.w3.org/2000/svg">
<rect width="32" height="32" rx="16" fill="white"/>
<path d="M25.504 22.3808H23.222C22.359 22.3808 22.099 21.6818 20.552 20.1338C19.2 18.8308 18.629 18.6688 18.287 18.6688C17.814 18.6688 17.685 18.7988 17.685 19.4498V21.5018C17.685 22.0568 17.505 22.3818 16.055 22.3818C14.6483 22.2873 13.2842 21.86 12.075 21.135C10.8658 20.41 9.84612 19.4081 9.1 18.2118C7.32839 16.0069 6.09571 13.4189 5.5 10.6538C5.5 10.3118 5.63 10.0018 6.282 10.0018H8.562C9.148 10.0018 9.359 10.2628 9.589 10.8658C10.696 14.1238 12.585 16.9578 13.352 16.9578C13.646 16.9578 13.774 16.8278 13.774 16.0948V12.7388C13.677 11.2078 12.864 11.0788 12.864 10.5248C12.8743 10.3787 12.9411 10.2423 13.0504 10.1446C13.1596 10.047 13.3026 9.99576 13.449 10.0018H17.033C17.523 10.0018 17.685 10.2458 17.685 10.8318V15.3618C17.685 15.8508 17.895 16.0128 18.043 16.0128C18.337 16.0128 18.563 15.8508 19.102 15.3128C20.2574 13.9038 21.2013 12.334 21.904 10.6528C21.9759 10.451 22.1119 10.2782 22.2912 10.1609C22.4705 10.0435 22.6832 9.98801 22.897 10.0028H25.178C25.862 10.0028 26.007 10.3448 25.862 10.8328C25.0324 12.6913 24.0058 14.4553 22.8 16.0948C22.554 16.4698 22.456 16.6648 22.8 17.1048C23.026 17.4468 23.826 18.1148 24.363 18.7498C25.145 19.5298 25.794 20.4318 26.285 21.4198C26.481 22.0558 26.155 22.3808 25.504 22.3808Z" fill="#008FCD"/>
</svg>
