<svg width="92" height="92" viewBox="0 0 92 92" fill="none" xmlns="http://www.w3.org/2000/svg">
<path d="M67.9764 80C67.7564 80 67.5922 80 67.428 80C53.1688 80 38.9096 80 24.6514 80C24.0014 80 24.0004 79.999 24.0004 79.35C24.0004 71.2173 23.9984 63.0835 24.0084 54.9508C24.0084 54.6784 24.0572 54.3646 24.1945 54.1408C26.3942 50.567 28.6118 47.0043 30.8265 43.4396C30.8693 43.3708 30.921 43.308 31.0225 43.1693C32.4956 45.4786 33.9409 47.7464 35.4299 50.08C35.5543 49.8998 35.6479 49.7723 35.7325 49.6386C38.2716 45.6649 40.8077 41.6881 43.3538 37.7194C43.5041 37.4856 43.513 37.3317 43.3607 37.0948C39.6422 31.2855 35.9305 25.4712 32.2169 19.6579C32.1662 19.5779 32.0995 19.5081 31.996 19.3765C29.3464 23.3411 26.7257 27.2642 24.0373 31.2876C24.0164 31.077 24.0004 30.9869 24.0004 30.8958C23.9994 24.8212 24.0004 18.7467 24.0004 12.6722C24.0004 12 24.0014 12 24.6325 12C38.8917 12 53.1509 12 67.4091 12C67.5872 12 67.7654 12 67.9734 12C67.9734 18.4329 67.9734 24.804 67.9734 31.1762C67.9465 31.1975 67.9207 31.2197 67.8938 31.241C65.1676 27.3037 62.4423 23.3674 59.6723 19.3663C59.5379 19.5617 59.4344 19.7045 59.3389 19.8533C55.678 25.5806 52.0182 31.3078 48.3553 37.034C48.215 37.2527 48.1224 37.4188 48.3046 37.7022C50.8934 41.7236 53.4654 45.757 56.0433 49.7864C56.0951 49.8674 56.1588 49.9413 56.2533 50.0679C57.7334 47.7657 59.1916 45.4999 60.6945 43.1622C60.8349 43.3697 60.9453 43.5246 61.0479 43.6846C63.3192 47.2119 65.5916 50.7391 67.855 54.2714C67.9456 54.4132 67.9943 54.6106 67.9943 54.7817C68.0013 63.0501 68.0003 71.3185 67.9993 79.5859C68.0003 79.7003 67.9874 79.8147 67.9764 80ZM45.8441 66.8568C45.9387 66.7252 45.9805 66.6736 46.0153 66.6179C48.6281 62.3931 51.2358 58.1652 53.8586 53.9475C54.0407 53.6549 53.9641 53.4716 53.8068 53.2297C52.1834 50.7229 50.567 48.2121 48.9486 45.7024C47.9313 44.125 46.9141 42.5477 45.872 40.9318C45.7675 41.0705 45.6829 41.1687 45.6122 41.2771C43.0283 45.2599 40.4504 49.2468 37.8555 53.2226C37.6575 53.5263 37.6714 53.7268 37.8585 54.0254C40.3051 57.9384 42.7367 61.8605 45.1722 65.7806C45.3843 66.1198 45.5963 66.4579 45.8441 66.8568Z" fill="#1A1A1A"/>
</svg>
