<svg width="55" height="84" viewBox="0 0 55 84" fill="none" xmlns="http://www.w3.org/2000/svg">
<path d="M54.9705 84C54.6955 84 54.4903 84 54.285 84C36.461 84 18.637 84 0.814238 84C0.0017944 84 0.000552965 83.9988 0.000552965 83.1971C0.000552965 73.1508 -0.00194084 63.1032 0.0105009 53.0568C0.0105009 52.7204 0.0714646 52.3327 0.24316 52.0563C2.99278 47.6416 5.76479 43.2406 8.53307 38.8372C8.58657 38.7521 8.65127 38.6746 8.77818 38.5032C10.6196 41.3559 12.4261 44.1573 14.2874 47.0401C14.4429 46.8174 14.5598 46.6599 14.6656 46.4948C17.8395 41.586 21.0096 36.6736 24.1922 31.7711C24.3801 31.4822 24.3913 31.2921 24.2009 30.9994C19.5527 23.8233 14.9132 16.6409 10.2712 9.45979C10.2077 9.36099 10.1244 9.27469 9.99497 9.11211C6.68299 14.0096 3.40709 18.8558 0.0465867 23.8258C0.0204591 23.5657 0.000552965 23.4544 0.000552965 23.3418C-0.000691206 15.838 0.000552965 8.33422 0.000552965 0.83042C0.000552965 0 0.0017941 0 0.790598 0C18.6146 0 36.4386 0 54.2613 0C54.484 0 54.7067 0 54.9668 0C54.9668 7.94652 54.9668 15.8168 54.9668 23.6882C54.9332 23.7145 54.9008 23.742 54.8672 23.7683C51.4595 18.9046 48.0529 14.0421 44.5904 9.0996C44.4224 9.34098 44.293 9.51732 44.1736 9.70116C39.5975 16.776 35.0227 23.8508 30.4442 30.9244C30.2687 31.1945 30.153 31.3996 30.3807 31.7498C33.6168 36.7173 36.8317 41.6999 40.0541 46.6774C40.1188 46.7774 40.1985 46.8687 40.3167 47.025C42.1667 44.1811 43.9895 41.3822 45.8682 38.4945C46.0436 38.7509 46.1817 38.9422 46.3098 39.1398C49.149 43.497 51.9895 47.8542 54.8187 52.2177C54.9319 52.3928 54.9929 52.6366 54.9929 52.848C55.0016 63.0619 55.0004 73.2758 54.9991 83.4885C55.0004 83.6298 54.9842 83.7711 54.9705 84ZM27.3051 67.7643C27.4233 67.6017 27.4756 67.5379 27.5191 67.4691C30.7851 62.2502 34.0448 57.0276 37.3232 51.8175C37.5509 51.456 37.4551 51.2297 37.2585 50.9308C35.2292 47.8342 33.2087 44.7326 31.1857 41.6323C29.9141 39.6838 28.6426 37.7353 27.34 35.7393C27.2093 35.9107 27.1036 36.032 27.0152 36.1658C23.7854 41.0858 20.563 46.0108 17.3194 50.922C17.0718 51.2972 17.0892 51.5448 17.3231 51.9138C20.3813 56.7475 23.4208 61.5924 26.4653 66.4349C26.7303 66.8538 26.9953 67.2715 27.3051 67.7643Z" fill="white"/>
</svg>
