<svg width="213" height="40" viewBox="0 0 213 40" fill="none" xmlns="http://www.w3.org/2000/svg">
<g clip-path="url(#clip0_19_113)">
<path d="M177.645 7.19418C175.402 9.84665 173.271 12.3656 171.117 14.9119C173.423 18.4369 175.716 21.9431 178.067 25.5343C180.995 19.3468 183.884 13.2418 186.848 6.97949C189.731 13.0658 192.553 19.0286 195.375 24.99C195.42 24.9813 195.465 24.9738 195.51 24.9651C195.51 19.0797 195.51 13.1956 195.51 7.31027C195.563 7.28031 195.614 7.25035 195.666 7.2204C200.308 11.151 204.949 15.0804 209.709 19.1109C209.709 15.0792 209.709 11.1897 209.709 7.24661C210.856 7.24661 211.919 7.24661 213.001 7.24661C213.001 13.4665 213.001 19.6527 213.001 25.9774C208.247 22.1241 203.58 18.3408 198.795 14.4613C198.795 18.377 198.795 22.1466 198.795 26.0485C197.631 25.9924 196.548 25.9262 195.464 25.8913C194.531 25.8613 193.596 25.8463 192.662 25.8638C192.281 25.8713 192.083 25.7652 191.909 25.4032C190.393 22.239 188.852 19.086 187.318 15.9317C187.184 15.6584 187.041 15.3912 186.845 15.0105C186.245 16.2325 185.697 17.3397 185.155 18.4494C184.019 20.7823 182.893 23.1215 181.738 25.4444C181.646 25.6304 181.365 25.8301 181.165 25.8363C179.071 25.8988 176.977 25.9075 174.883 25.9699C174.399 25.9849 174.138 25.8101 173.886 25.4194C172.295 22.9592 170.681 20.5152 169.072 18.0649C168.995 17.9476 168.91 17.8353 168.778 17.6493C167.971 18.543 167.186 19.3918 166.432 20.2668C166.319 20.3991 166.316 20.655 166.315 20.8534C166.306 22.3101 166.31 23.7655 166.31 25.2222C166.31 25.4456 166.31 25.6678 166.31 25.9325C159.49 25.9325 152.744 25.9325 145.947 25.9325C145.947 22.3101 145.947 18.7028 145.947 15.0542C149.878 15.0542 153.792 15.0542 157.747 15.0542C157.747 15.9567 157.747 16.8379 157.747 17.7891C154.996 17.7891 152.261 17.7891 149.491 17.7891C149.491 19.4505 149.491 21.0457 149.491 22.6858C153.936 22.6858 158.391 22.6858 162.899 22.6858C162.899 17.5594 162.899 12.4305 162.899 7.24536C164.054 7.24536 165.156 7.24536 166.322 7.24536C166.322 10.1063 166.322 12.9435 166.322 15.9692C166.609 15.6309 166.779 15.4362 166.944 15.2365C169.011 12.7388 171.09 10.2486 173.136 7.73341C173.476 7.31526 173.822 7.15923 174.348 7.1792C175.381 7.2204 176.416 7.19418 177.645 7.19418Z" fill="white"/>
<path d="M140.749 0C141.452 8.73545 142.14 17.3097 142.831 25.9239C141.141 25.9239 139.53 25.9239 137.847 25.9239C137.433 20.9189 137.021 15.9338 136.594 10.75C133.815 13.8418 131.15 16.8073 128.433 19.8304C125.804 16.9023 123.191 13.9917 120.475 10.9662C120.049 16.0425 119.637 20.9663 119.22 25.9189C117.537 25.9189 115.887 25.9189 114.165 25.9189C114.857 17.301 115.546 8.72671 116.247 0.00125093C120.386 4.47895 124.427 8.84918 128.498 13.2531C132.569 8.84918 136.6 4.48895 140.749 0Z" fill="white"/>
<path d="M159.283 7.229C158.918 8.13774 158.586 8.99702 158.22 9.84146C158.166 9.96386 157.949 10.09 157.807 10.09C153.904 10.0999 150.002 10.0949 146.098 10.0887C146.059 10.0887 146.022 10.0603 145.947 10.0306C145.947 9.12436 145.947 8.2045 145.947 7.229C150.36 7.229 154.767 7.229 159.283 7.229Z" fill="white"/>
<path d="M52.3359 25.9899C45.4232 25.9899 38.6251 25.9899 31.7822 25.9899C31.7822 22.3413 31.7822 18.7388 31.7822 15.0976C35.7063 15.0976 39.6155 15.0976 43.5546 15.0976C43.5546 16.0132 43.5546 16.8963 43.5546 17.8506C40.799 17.8506 38.0683 17.8506 35.3027 17.8506C35.3027 19.5121 35.3027 21.1026 35.3027 22.7329C39.8721 22.7329 44.4266 22.7329 49.0596 22.7329C49.0596 17.6011 49.0596 12.4643 49.0596 7.13542C53.8445 11.1907 58.4887 15.1275 63.1964 19.118C63.1964 15.039 63.1964 11.0348 63.1964 6.97949C70.6722 6.97949 78.1853 6.97949 85.8043 6.97949C82.3349 12.2548 78.9141 17.4539 75.4484 22.7242C79.9231 22.7242 84.3194 22.7242 88.763 22.7242C88.763 17.5699 88.763 12.4219 88.763 7.22648C89.9763 7.22648 91.1449 7.22648 92.3545 7.22648C92.3545 13.446 92.3545 19.6731 92.3545 25.9562C84.6333 25.9562 76.9047 25.9562 69.029 25.9562C72.491 20.6934 75.9118 15.493 79.38 10.219C75.0821 10.219 70.8677 10.219 66.5649 10.219C66.5649 15.4356 66.5649 20.656 66.5649 26.0485C61.76 22.1492 57.0934 18.3633 52.3372 14.5038C52.3359 18.3783 52.3359 22.1616 52.3359 25.9899Z" fill="white"/>
<path d="M26.5808 0C27.2804 8.69456 27.9688 17.2419 28.6659 25.9103C28.3192 25.9103 28.0212 25.9103 27.7231 25.9103C26.5808 25.9103 25.4373 25.8828 24.2962 25.9228C23.765 25.9415 23.6478 25.7357 23.6091 25.2504C23.2412 20.5289 22.8484 15.8099 22.4618 11.0909C22.4568 11.0335 22.4344 10.9786 22.3833 10.779C19.6547 13.8115 16.9873 16.7741 14.2675 19.7967C11.6512 16.8864 9.03486 13.9774 6.31006 10.9462C5.88482 15.997 5.4708 20.9193 5.05304 25.8729C3.37077 25.8729 1.73963 25.8729 0 25.8729C0.689617 17.2893 1.37799 8.73448 2.08008 0.00124864C6.21903 4.46953 10.257 8.82928 14.3311 13.229C18.3977 8.83801 22.4406 4.47202 26.5808 0Z" fill="white"/>
<path d="M100.438 23.1129C104.039 23.1129 107.525 23.1129 111.049 23.1129C111.049 24.0995 111.049 25.0497 111.049 26.0488C106.357 26.0488 101.682 26.0488 96.9658 26.0488C96.9658 19.7797 96.9658 13.5244 96.9658 7.229C98.099 7.229 99.2298 7.229 100.438 7.229C100.438 12.4927 100.438 17.7615 100.438 23.1129Z" fill="white"/>
<path d="M31.7822 10.0955C31.7822 9.10925 31.7822 8.19314 31.7822 7.229C36.2055 7.229 40.6163 7.229 45.1181 7.229C44.7514 8.14019 44.4071 9.02675 44.0304 9.89977C43.9867 10.002 43.7684 10.0857 43.6312 10.0869C39.7057 10.0968 35.7814 10.0955 31.7822 10.0955Z" fill="white"/>
<path d="M85.5381 34.4285L84.6338 39.0278L83.3809 38.7835L84.9129 31.0645L85.5133 30.9881L87.6209 36.1913L89.7645 30.9092L90.3289 31.0244L91.856 38.7685L90.6105 39.0316L89.7012 34.416L87.6184 39.5089L85.5381 34.4285Z" fill="white"/>
<path d="M91.4822 38.474C91.2421 38.5249 91.0701 38.5609 90.8449 38.6081C90.5033 36.8889 90.1679 35.1982 89.7991 33.3375C89.0467 35.1647 88.3623 36.8281 87.6185 38.6366C86.8735 36.8293 86.1879 35.1685 85.438 33.3512C85.0704 35.2094 84.7387 36.8839 84.3972 38.6106C84.1818 38.5684 84.0073 38.5348 83.7549 38.4864C84.2313 36.1044 84.7053 33.7335 85.1793 31.3639C85.2263 31.3577 85.2746 31.3515 85.3216 31.3453C86.0691 33.1774 86.8166 35.0083 87.621 36.9807C88.4353 34.9872 89.1915 33.1352 89.9489 31.2832C89.986 31.2907 90.0219 31.2981 90.059 31.3055C90.5268 33.6677 90.9971 36.0287 91.4822 38.474Z" fill="white"/>
<path d="M158.347 39.0104C156.105 39.0029 154.327 37.2322 154.298 34.9792C154.284 33.9045 154.695 32.8898 155.452 32.1213C156.221 31.3403 157.253 30.9092 158.355 30.9092H158.37C160.623 30.9167 162.393 32.6861 162.399 34.9367C162.402 36.0438 161.986 37.0723 161.228 37.8345C160.473 38.5918 159.456 39.0092 158.36 39.0092H158.347V39.0104ZM158.375 32.16C156.815 32.1613 155.634 33.3559 155.628 34.9392C155.625 35.7252 155.906 36.4437 156.421 36.961C156.917 37.4621 157.598 37.7383 158.338 37.7396C159.886 37.7396 161.101 36.5199 161.112 34.9642C161.117 34.2044 160.83 33.4934 160.305 32.9623C159.791 32.4437 159.106 32.1588 158.378 32.1588V31.8464L158.375 32.16Z" fill="white"/>
<path d="M162.15 34.8759C162.156 36.9906 160.513 38.643 158.41 38.6367C156.346 38.6305 154.698 36.9881 154.672 34.9133C154.646 32.8423 156.339 31.1512 158.432 31.1587C160.514 31.1662 162.144 32.7948 162.15 34.8759ZM155.378 34.8746C155.372 36.6457 156.672 37.9868 158.4 37.9905C160.11 37.9943 161.475 36.6294 161.486 34.9046C161.499 33.1773 160.136 31.7824 158.437 31.7837C156.709 31.7849 155.385 33.1235 155.378 34.8746Z" fill="white"/>
<path d="M51.9644 33.8138V38.752L50.7266 39.0022V30.4106L55.4563 36.067L55.4588 35.3426C55.4625 34.2054 55.4675 33.0293 55.4501 31.8745C55.4476 31.668 55.4662 31.369 55.6628 31.1688C55.7872 31.0425 55.9576 30.9774 56.1679 30.9774C56.2562 30.9774 56.352 30.9887 56.4602 31.0112L56.709 31.0625V39.5089L51.9644 33.8138Z" fill="white"/>
<path d="M51.5917 32.9598C51.5917 34.9157 51.5917 36.6895 51.5917 38.4833C51.3676 38.5282 51.1921 38.5643 50.9756 38.608C50.9756 36.1946 50.9756 33.815 50.9756 31.2832C52.5575 33.168 54.0635 34.9618 55.6553 36.859C55.679 36.5798 55.7051 36.4103 55.7063 36.242C55.7101 34.7898 55.7213 33.3363 55.7001 31.884C55.6939 31.4178 55.8445 31.2321 56.3349 31.3331C56.3349 33.7227 56.3349 36.0974 56.3349 38.6366C54.7281 36.7119 53.2159 34.9032 51.5917 32.9598Z" fill="white"/>
<path d="M176.36 33.8346V38.8121L175.111 39.0247V30.4106L179.859 36.0799C179.86 35.8523 179.86 35.6258 179.862 35.3982C179.865 34.2409 179.87 33.0434 179.852 31.8673C179.848 31.666 179.867 31.3742 180.061 31.1767C180.188 31.0471 180.364 30.9817 180.586 30.9817C180.661 30.9817 180.74 30.9893 180.831 31.0031L181.094 31.0459V39.5089L176.36 33.8346Z" fill="white"/>
<path d="M176.107 32.972C176.107 34.9392 176.107 36.7259 176.107 38.5313C175.879 38.5702 175.701 38.6003 175.485 38.6366C175.485 36.2131 175.485 33.8234 175.485 31.2832C177.082 33.1827 178.592 34.9793 180.177 36.8638C180.205 36.6155 180.235 36.4688 180.235 36.3209C180.239 34.8377 180.251 33.3532 180.229 31.87C180.221 31.4249 180.366 31.2456 180.845 31.3233C180.845 33.703 180.845 36.0889 180.845 38.6291C179.244 36.7183 177.732 34.9116 176.107 32.972Z" fill="white"/>
<path d="M110.101 38.7591C109.977 38.5116 109.853 38.269 109.731 38.0265C109.417 37.4071 109.12 36.8228 108.832 36.2184C108.73 36.0048 108.663 35.9708 108.498 35.9708H108.466C108.3 35.9771 108.122 35.9796 107.907 35.9796C107.765 35.9796 107.622 35.9784 107.478 35.9771C107.336 35.9759 107.195 35.9746 107.054 35.9746C106.728 35.9746 106.48 35.9821 106.249 35.9972C106.123 36.006 105.912 36.1329 105.854 36.236C105.521 36.819 105.223 37.4108 104.909 38.0391C104.794 38.2691 104.677 38.5015 104.558 38.734L104.444 38.9589L103.197 38.6221L107.372 30.4106L111.423 38.5379L110.228 39.0104L110.101 38.7591ZM108.066 34.6904L107.342 33.2203L106.637 34.6904H108.066Z" fill="white"/>
<path d="M104.205 38.6105C104.001 38.5554 103.829 38.5092 103.571 38.4404C104.813 36.0127 106.034 33.6276 107.296 31.1587C108.525 33.6064 109.712 35.9752 110.925 38.3941C110.711 38.4779 110.533 38.5479 110.308 38.6367C109.872 37.7738 109.441 36.9508 109.042 36.114C108.899 35.8139 108.73 35.6788 108.384 35.6913C107.641 35.7188 106.895 35.6688 106.154 35.7176C105.927 35.7326 105.623 35.9152 105.51 36.1115C105.047 36.9158 104.644 37.7562 104.205 38.6105ZM107.264 32.5557C106.833 33.45 106.461 34.2192 106.066 35.0397C106.91 35.0397 107.657 35.0397 108.496 35.0397C108.083 34.2079 107.703 33.44 107.264 32.5557Z" fill="white"/>
<path d="M37.309 38.7484C37.1882 38.504 37.0663 38.2634 36.9468 38.024C36.6443 37.4223 36.3593 36.8533 36.0842 36.2641C35.9635 36.0047 35.8739 35.9583 35.6822 35.9583C35.6673 35.9583 35.6511 35.9583 35.6337 35.9596C35.4532 35.9683 35.2578 35.9734 35.0201 35.9734C34.8794 35.9734 34.7388 35.9721 34.5981 35.9709C34.46 35.9696 34.3218 35.9683 34.1837 35.9683C33.8961 35.9683 33.6746 35.9746 33.468 35.9884C33.3361 35.9972 33.1257 36.12 33.066 36.2215C32.7312 36.8019 32.4299 37.396 32.1113 38.0252C31.9931 38.2596 31.8723 38.4965 31.7491 38.7372L31.6284 38.9716L30.4111 38.5792L34.5857 30.4106L38.637 38.5191L37.4372 39.0104L37.309 38.7484ZM35.2839 34.6861L34.5583 33.2171L33.8327 34.6861H35.2839Z" fill="white"/>
<path d="M31.5277 38.6193C31.3061 38.5481 31.1517 38.4982 30.9102 38.4208C32.1503 36.0055 33.3729 33.6227 34.6379 31.1587C35.8643 33.6027 37.0509 35.9668 38.2636 38.3834C38.0519 38.4695 37.8751 38.5419 37.6423 38.6367C37.2227 37.793 36.8056 36.9891 36.4209 36.169C36.2627 35.8308 36.0735 35.666 35.6738 35.686C34.9504 35.7222 34.2233 35.6647 33.5012 35.7147C33.2721 35.7309 32.9645 35.9069 32.8512 36.1016C32.3856 36.9042 31.9809 37.743 31.5277 38.6193ZM34.6143 32.5667C34.1747 33.4517 33.7962 34.2143 33.3854 35.0419C34.2544 35.0419 35.0027 35.0419 35.8419 35.0419C35.431 34.2143 35.05 33.4467 34.6143 32.5667Z" fill="white"/>
<path d="M124.742 32.2894H122.641L122.992 31.0337H127.751V32.2719H126.013V38.7118L124.742 38.8857V32.2894Z" fill="white"/>
<path d="M125.128 32.0422C124.422 32.0422 123.814 32.0422 123.139 32.0422C123.21 31.7816 123.263 31.589 123.314 31.4077C124.726 31.4077 126.095 31.4077 127.501 31.4077C127.501 31.6167 127.501 31.793 127.501 32.0246C126.933 32.0246 126.387 32.0246 125.774 32.0246C125.774 34.2227 125.774 36.3679 125.774 38.5471C125.539 38.5799 125.367 38.6038 125.128 38.6365C125.128 36.4422 125.128 34.2932 125.128 32.0422Z" fill="white"/>
<path d="M69.6788 35.8529C69.6788 35.4792 69.6801 35.1055 69.6813 34.7319C69.6838 33.8008 69.6876 32.8375 69.6713 31.8915C69.6675 31.6966 69.6863 31.416 69.8779 31.2211C70.0019 31.097 70.1697 31.0337 70.3788 31.0337C70.4652 31.0337 70.5604 31.0436 70.6668 31.066L70.9172 31.1169V38.7789L69.6788 38.8857V35.8529Z" fill="white"/>
<path d="M70.6681 38.4597C70.4705 38.4771 70.2956 38.4921 70.0527 38.512C70.0527 37.58 70.0527 36.6941 70.0527 35.807C70.0527 34.48 70.0678 33.153 70.0452 31.8273C70.0376 31.3788 70.1987 31.2143 70.6681 31.309C70.6681 33.6726 70.6681 36.0462 70.6681 38.4597Z" fill="white"/>
<path d="M140.348 34.7912C140.348 34.5101 140.35 34.2289 140.351 33.9464C140.355 33.2769 140.358 32.5834 140.34 31.905C140.335 31.707 140.35 31.4195 140.54 31.2228C140.662 31.0967 140.829 31.0337 141.036 31.0337C141.126 31.0337 141.225 31.0463 141.338 31.0703L141.585 31.1245V38.8981L140.348 39.0103V34.7912Z" fill="white"/>
<path d="M141.336 38.4572C141.134 38.4746 140.958 38.4908 140.721 38.512C140.721 37.2061 140.721 35.9451 140.721 34.6854C140.721 33.7322 140.739 32.7777 140.714 31.8257C140.701 31.3809 140.857 31.2089 141.336 31.3124C141.336 33.6749 141.336 36.0461 141.336 38.4572Z" fill="white"/>
</g>
<defs>
<clipPath id="clip0_19_113">
<rect width="213" height="39.5091" fill="white"/>
</clipPath>
</defs>
</svg>
