<svg width="213" height="128" viewBox="0 0 213 128" fill="none" xmlns="http://www.w3.org/2000/svg">
<g clip-path="url(#clip0_19_957)">
<path d="M133.578 83.7542C133.303 83.7542 133.097 83.7542 132.892 83.7542C115.039 83.7542 97.1865 83.7542 79.3351 83.7542C78.5213 83.7542 78.5201 83.753 78.5201 82.9537C78.5201 72.9367 78.5176 62.9186 78.53 52.9016C78.53 52.5662 78.5911 52.1796 78.7631 51.904C81.5171 47.5022 84.2936 43.1141 87.0663 38.7235C87.1199 38.6387 87.1847 38.5614 87.3118 38.3906C89.1561 41.2349 90.9656 44.0282 92.8298 46.9024C92.9856 46.6805 93.1028 46.5233 93.2087 46.3587C96.3877 41.4644 99.5629 36.5663 102.751 31.6781C102.939 31.3901 102.95 31.2005 102.759 30.9087C98.1036 23.7536 93.4567 16.5922 88.8072 9.43211C88.7437 9.3336 88.6602 9.24756 88.5306 9.08545C85.2133 13.9686 81.9321 18.8006 78.5662 23.7561C78.54 23.4967 78.5201 23.3857 78.5201 23.2735C78.5188 15.7917 78.5201 8.30983 78.5201 0.827991C78.5201 0 78.5213 0 79.3114 0C97.164 0 115.017 0 132.868 0C133.091 0 133.314 0 133.575 0C133.575 7.92327 133.575 15.7705 133.575 23.6189C133.541 23.6451 133.509 23.6726 133.475 23.6987C130.062 18.8493 126.65 14.001 123.182 9.07298C123.013 9.31365 122.884 9.48947 122.764 9.67278C118.181 16.7269 113.599 23.781 109.013 30.8339C108.837 31.1033 108.721 31.3078 108.949 31.6569C112.19 36.6099 115.41 41.5779 118.638 46.5408C118.703 46.6406 118.783 46.7316 118.901 46.8875C120.754 44.0518 122.58 41.2611 124.461 38.3819C124.637 38.6375 124.775 38.8283 124.904 39.0253C127.748 43.3698 130.593 47.7142 133.426 52.0649C133.54 52.2395 133.601 52.4826 133.601 52.6934C133.61 62.8774 133.608 73.0614 133.607 83.2442C133.608 83.3851 133.592 83.526 133.578 83.7542ZM105.869 67.566C105.987 67.4039 106.039 67.3403 106.083 67.2717C109.354 62.0681 112.619 56.8608 115.903 51.6659C116.131 51.3055 116.035 51.0798 115.838 50.7818C113.805 47.6943 111.782 44.6018 109.755 41.5105C108.482 39.5677 107.208 37.6249 105.903 35.6348C105.773 35.8056 105.667 35.9266 105.578 36.06C102.343 40.9656 99.1155 45.8762 95.8668 50.773C95.6188 51.1471 95.6362 51.394 95.8705 51.7619C98.9336 56.5814 101.978 61.4122 105.027 66.2405C105.293 66.6582 105.558 67.0747 105.869 67.566Z" fill="white"/>
<path d="M177.645 95.6844C175.402 98.3369 173.271 100.856 171.117 103.402C173.423 106.927 175.716 110.433 178.067 114.025C180.995 107.837 183.884 101.732 186.848 95.4697C189.731 101.556 192.553 107.519 195.375 113.48C195.42 113.472 195.465 113.464 195.51 113.455C195.51 107.57 195.51 101.686 195.51 95.8005C195.563 95.7705 195.614 95.7406 195.666 95.7106C200.308 99.6413 204.949 103.571 209.709 107.601C209.709 103.569 209.709 99.68 209.709 95.7368C210.856 95.7368 211.919 95.7368 213.001 95.7368C213.001 101.957 213.001 108.143 213.001 114.468C208.247 110.614 203.58 106.831 198.795 102.952C198.795 106.867 198.795 110.637 198.795 114.539C197.631 114.483 196.548 114.416 195.464 114.381C194.531 114.352 193.596 114.337 192.662 114.354C192.281 114.362 192.083 114.255 191.909 113.893C190.393 110.729 188.852 107.576 187.318 104.422C187.184 104.149 187.041 103.881 186.845 103.501C186.245 104.723 185.697 105.83 185.155 106.94C184.019 109.273 182.893 111.612 181.738 113.935C181.646 114.121 181.365 114.32 181.165 114.327C179.071 114.389 176.977 114.398 174.883 114.46C174.399 114.475 174.138 114.3 173.886 113.91C172.295 111.449 170.681 109.005 169.072 106.555C168.995 106.438 168.91 106.325 168.778 106.14C167.971 107.033 167.186 107.882 166.432 108.757C166.319 108.889 166.316 109.145 166.315 109.344C166.306 110.8 166.31 112.256 166.31 113.712C166.31 113.936 166.31 114.158 166.31 114.423C159.49 114.423 152.744 114.423 145.947 114.423C145.947 110.8 145.947 107.193 145.947 103.544C149.878 103.544 153.792 103.544 157.747 103.544C157.747 104.447 157.747 105.328 157.747 106.279C154.996 106.279 152.261 106.279 149.491 106.279C149.491 107.941 149.491 109.536 149.491 111.176C153.936 111.176 158.391 111.176 162.899 111.176C162.899 106.05 162.899 100.921 162.899 95.7356C164.054 95.7356 165.156 95.7356 166.322 95.7356C166.322 98.5965 166.322 101.434 166.322 104.459C166.609 104.121 166.779 103.926 166.944 103.727C169.011 101.229 171.09 98.7388 173.136 96.2236C173.476 95.8055 173.822 95.6495 174.348 95.6694C175.381 95.7106 176.416 95.6844 177.645 95.6844Z" fill="white"/>
<path d="M140.749 88.4902C141.452 97.2257 142.14 105.8 142.831 114.414C141.141 114.414 139.53 114.414 137.847 114.414C137.433 109.409 137.021 104.424 136.594 99.2402C133.815 102.332 131.15 105.298 128.433 108.321C125.804 105.393 123.191 102.482 120.475 99.4564C120.049 104.533 119.637 109.457 119.22 114.409C117.537 114.409 115.887 114.409 114.165 114.409C114.857 105.791 115.546 97.2169 116.247 88.4915C120.386 92.9692 124.427 97.3394 128.498 101.743C132.569 97.3394 136.6 92.9792 140.749 88.4902Z" fill="white"/>
<path d="M159.283 95.7192C158.918 96.628 158.586 97.4873 158.22 98.3317C158.166 98.4541 157.949 98.5802 157.807 98.5802C153.904 98.5901 150.002 98.5852 146.098 98.579C146.059 98.579 146.022 98.5505 145.947 98.5209C145.947 97.6146 145.947 96.6947 145.947 95.7192C150.36 95.7192 154.767 95.7192 159.283 95.7192Z" fill="white"/>
<path d="M52.3359 114.48C45.4232 114.48 38.6251 114.48 31.7822 114.48C31.7822 110.831 31.7822 107.229 31.7822 103.588C35.7063 103.588 39.6155 103.588 43.5546 103.588C43.5546 104.503 43.5546 105.387 43.5546 106.341C40.799 106.341 38.0683 106.341 35.3027 106.341C35.3027 108.002 35.3027 109.593 35.3027 111.223C39.8721 111.223 44.4266 111.223 49.0596 111.223C49.0596 106.091 49.0596 100.955 49.0596 95.6257C53.8445 99.681 58.4887 103.618 63.1964 107.608C63.1964 103.529 63.1964 99.525 63.1964 95.4697C70.6722 95.4697 78.1853 95.4697 85.8043 95.4697C82.3349 100.745 78.9141 105.944 75.4484 111.214C79.9231 111.214 84.3194 111.214 88.763 111.214C88.763 106.06 88.763 100.912 88.763 95.7167C89.9763 95.7167 91.1449 95.7167 92.3545 95.7167C92.3545 101.936 92.3545 108.163 92.3545 114.446C84.6333 114.446 76.9047 114.446 69.029 114.446C72.491 109.184 75.9118 103.983 79.38 98.7092C75.0821 98.7092 70.8677 98.7092 66.5649 98.7092C66.5649 103.926 66.5649 109.146 66.5649 114.539C61.76 110.639 57.0934 106.854 52.3372 102.994C52.3359 106.868 52.3359 110.652 52.3359 114.48Z" fill="white"/>
<path d="M26.5808 88.4902C27.2804 97.1848 27.9688 105.732 28.6659 114.401C28.3192 114.401 28.0212 114.401 27.7231 114.401C26.5808 114.401 25.4373 114.373 24.2962 114.413C23.765 114.432 23.6478 114.226 23.6091 113.741C23.2412 109.019 22.8484 104.3 22.4618 99.5811C22.4568 99.5237 22.4344 99.4688 22.3833 99.2692C19.6547 102.302 16.9873 105.264 14.2675 108.287C11.6512 105.377 9.03486 102.468 6.31006 99.4364C5.88482 104.487 5.4708 109.41 5.05304 114.363C3.37077 114.363 1.73963 114.363 0 114.363C0.689617 105.78 1.37799 97.2247 2.08008 88.4915C6.21903 92.9598 10.257 97.3195 14.3311 101.719C18.3977 97.3282 22.4406 92.9623 26.5808 88.4902Z" fill="white"/>
<path d="M100.438 111.603C104.039 111.603 107.525 111.603 111.049 111.603C111.049 112.59 111.049 113.54 111.049 114.539C106.357 114.539 101.682 114.539 96.9658 114.539C96.9658 108.27 96.9658 102.015 96.9658 95.7192C98.099 95.7192 99.2298 95.7192 100.438 95.7192C100.438 100.983 100.438 106.252 100.438 111.603Z" fill="white"/>
<path d="M31.7822 98.5858C31.7822 97.5995 31.7822 96.6834 31.7822 95.7192C36.2055 95.7192 40.6163 95.7192 45.1181 95.7192C44.7514 96.6304 44.4071 97.517 44.0304 98.39C43.9867 98.4922 43.7684 98.5759 43.6312 98.5772C39.7057 98.587 35.7814 98.5858 31.7822 98.5858Z" fill="white"/>
<path d="M85.5381 122.919L84.6338 127.518L83.3809 127.274L84.9129 119.555L85.5133 119.478L87.6209 124.682L89.7645 119.399L90.3289 119.515L91.856 127.259L90.6105 127.522L89.7012 122.906L87.6184 127.999L85.5381 122.919Z" fill="white"/>
<path d="M91.4822 126.964C91.2421 127.015 91.0701 127.051 90.8449 127.098C90.5033 125.379 90.1679 123.688 89.7991 121.828C89.0467 123.655 88.3623 125.318 87.6185 127.127C86.8735 125.32 86.1879 123.659 85.438 121.841C85.0704 123.7 84.7387 125.374 84.3972 127.101C84.1818 127.059 84.0073 127.025 83.7549 126.977C84.2313 124.595 84.7053 122.224 85.1793 119.854C85.2263 119.848 85.2746 119.842 85.3216 119.836C86.0691 121.668 86.8166 123.499 87.621 125.471C88.4353 123.477 89.1915 121.625 89.9489 119.773C89.986 119.781 90.0219 119.788 90.059 119.796C90.5268 122.158 90.9971 124.519 91.4822 126.964Z" fill="white"/>
<path d="M158.347 127.501C156.105 127.493 154.327 125.722 154.298 123.469C154.284 122.395 154.695 121.38 155.452 120.612C156.221 119.831 157.253 119.399 158.355 119.399H158.37C160.623 119.407 162.393 121.176 162.399 123.427C162.402 124.534 161.986 125.562 161.228 126.325C160.473 127.082 159.456 127.499 158.36 127.499H158.347V127.501ZM158.375 120.65C156.815 120.652 155.634 121.846 155.628 123.429C155.625 124.215 155.906 124.934 156.421 125.451C156.917 125.952 157.598 126.229 158.338 126.23C159.886 126.23 161.101 125.01 161.112 123.454C161.117 122.695 160.83 121.984 160.305 121.453C159.791 120.934 159.106 120.649 158.378 120.649V120.337L158.375 120.65Z" fill="white"/>
<path d="M162.15 123.366C162.156 125.481 160.513 127.133 158.41 127.127C156.346 127.121 154.698 125.478 154.672 123.404C154.646 121.333 156.339 119.641 158.432 119.649C160.514 119.656 162.144 121.285 162.15 123.366ZM155.378 123.365C155.372 125.136 156.672 126.477 158.4 126.481C160.11 126.485 161.475 125.12 161.486 123.395C161.499 121.668 160.136 120.273 158.437 120.274C156.709 120.275 155.385 121.614 155.378 123.365Z" fill="white"/>
<path d="M51.9644 122.304V127.242L50.7266 127.492V118.901L55.4563 124.557L55.4588 123.833C55.4625 122.696 55.4675 121.52 55.4501 120.365C55.4476 120.158 55.4662 119.859 55.6628 119.659C55.7872 119.533 55.9576 119.468 56.1679 119.468C56.2562 119.468 56.352 119.479 56.4602 119.501L56.709 119.553V127.999L51.9644 122.304Z" fill="white"/>
<path d="M51.5917 121.45C51.5917 123.406 51.5917 125.18 51.5917 126.974C51.3676 127.018 51.1921 127.055 50.9756 127.098C50.9756 124.685 50.9756 122.305 50.9756 119.773C52.5575 121.658 54.0635 123.452 55.6553 125.349C55.679 125.07 55.7051 124.901 55.7063 124.732C55.7101 123.28 55.7213 121.827 55.7001 120.374C55.6939 119.908 55.8445 119.722 56.3349 119.823C56.3349 122.213 56.3349 124.588 56.3349 127.127C54.7281 125.202 53.2159 123.393 51.5917 121.45Z" fill="white"/>
<path d="M176.36 122.325V127.302L175.111 127.515V118.901L179.859 124.57C179.86 124.342 179.86 124.116 179.862 123.888C179.865 122.731 179.87 121.534 179.852 120.358C179.848 120.156 179.867 119.864 180.061 119.667C180.188 119.537 180.364 119.472 180.586 119.472C180.661 119.472 180.74 119.48 180.831 119.493L181.094 119.536V127.999L176.36 122.325Z" fill="white"/>
<path d="M176.107 121.462C176.107 123.429 176.107 125.216 176.107 127.022C175.879 127.06 175.701 127.091 175.485 127.127C175.485 124.703 175.485 122.314 175.485 119.773C177.082 121.673 178.592 123.47 180.177 125.354C180.205 125.106 180.235 124.959 180.235 124.811C180.239 123.328 180.251 121.843 180.229 120.36C180.221 119.915 180.366 119.736 180.845 119.814C180.845 122.193 180.845 124.579 180.845 127.119C179.244 125.209 177.732 123.402 176.107 121.462Z" fill="white"/>
<path d="M110.101 127.249C109.977 127.002 109.853 126.759 109.731 126.517C109.417 125.897 109.12 125.313 108.832 124.709C108.73 124.495 108.663 124.461 108.498 124.461H108.466C108.3 124.467 108.122 124.47 107.907 124.47C107.765 124.47 107.622 124.469 107.478 124.467C107.336 124.466 107.195 124.465 107.054 124.465C106.728 124.465 106.48 124.472 106.249 124.487C106.123 124.496 105.912 124.623 105.854 124.726C105.521 125.309 105.223 125.901 104.909 126.529C104.794 126.759 104.677 126.992 104.558 127.224L104.444 127.449L103.197 127.112L107.372 118.901L111.423 127.028L110.228 127.501L110.101 127.249ZM108.066 123.181L107.342 121.711L106.637 123.181H108.066Z" fill="white"/>
<path d="M104.205 127.101C104.001 127.046 103.829 126.999 103.571 126.931C104.813 124.503 106.034 122.118 107.296 119.649C108.525 122.097 109.712 124.465 110.925 126.884C110.711 126.968 110.533 127.038 110.308 127.127C109.872 126.264 109.441 125.441 109.042 124.604C108.899 124.304 108.73 124.169 108.384 124.182C107.641 124.209 106.895 124.159 106.154 124.208C105.927 124.223 105.623 124.405 105.51 124.602C105.047 125.406 104.644 126.246 104.205 127.101ZM107.264 121.046C106.833 121.94 106.461 122.709 106.066 123.53C106.91 123.53 107.657 123.53 108.496 123.53C108.083 122.698 107.703 121.93 107.264 121.046Z" fill="white"/>
<path d="M37.309 127.239C37.1882 126.994 37.0663 126.754 36.9468 126.514C36.6443 125.913 36.3593 125.343 36.0842 124.754C35.9635 124.495 35.8739 124.449 35.6822 124.449C35.6673 124.449 35.6511 124.449 35.6337 124.45C35.4532 124.459 35.2578 124.464 35.0201 124.464C34.8794 124.464 34.7388 124.462 34.5981 124.461C34.46 124.46 34.3218 124.459 34.1837 124.459C33.8961 124.459 33.6746 124.465 33.468 124.479C33.3361 124.487 33.1257 124.61 33.066 124.712C32.7312 125.292 32.4299 125.886 32.1113 126.515C31.9931 126.75 31.8723 126.987 31.7491 127.227L31.6284 127.462L30.4111 127.069L34.5857 118.901L38.637 127.009L37.4372 127.501L37.309 127.239ZM35.2839 123.176L34.5583 121.707L33.8327 123.176H35.2839Z" fill="white"/>
<path d="M31.5277 127.11C31.3061 127.038 31.1517 126.988 30.9102 126.911C32.1503 124.496 33.3729 122.113 34.6379 119.649C35.8643 122.093 37.0509 124.457 38.2636 126.874C38.0519 126.96 37.8751 127.032 37.6423 127.127C37.2227 126.283 36.8056 125.479 36.4209 124.659C36.2627 124.321 36.0735 124.156 35.6738 124.176C34.9504 124.212 34.2233 124.155 33.5012 124.205C33.2721 124.221 32.9645 124.397 32.8512 124.592C32.3856 125.394 31.9809 126.233 31.5277 127.11ZM34.6143 121.057C34.1747 121.942 33.7962 122.705 33.3854 123.532C34.2544 123.532 35.0027 123.532 35.8419 123.532C35.431 122.705 35.05 121.937 34.6143 121.057Z" fill="white"/>
<path d="M124.742 120.78H122.641L122.992 119.524H127.751V120.762H126.013V127.202L124.742 127.376V120.78Z" fill="white"/>
<path d="M125.128 120.532C124.422 120.532 123.814 120.532 123.139 120.532C123.21 120.272 123.263 120.079 123.314 119.898C124.726 119.898 126.095 119.898 127.501 119.898C127.501 120.107 127.501 120.283 127.501 120.515C126.933 120.515 126.387 120.515 125.774 120.515C125.774 122.713 125.774 124.858 125.774 127.037C125.539 127.07 125.367 127.094 125.128 127.127C125.128 124.932 125.128 122.783 125.128 120.532Z" fill="white"/>
<path d="M69.6788 124.343C69.6788 123.969 69.6801 123.596 69.6813 123.222C69.6838 122.291 69.6876 121.328 69.6713 120.382C69.6675 120.187 69.6863 119.906 69.8779 119.711C70.0019 119.587 70.1697 119.524 70.3788 119.524C70.4652 119.524 70.5604 119.534 70.6668 119.556L70.9172 119.607V127.269L69.6788 127.376V124.343Z" fill="white"/>
<path d="M70.6681 126.95C70.4705 126.967 70.2956 126.982 70.0527 127.002C70.0527 126.07 70.0527 125.184 70.0527 124.297C70.0527 122.97 70.0678 121.643 70.0452 120.318C70.0376 119.869 70.1987 119.705 70.6681 119.799C70.6681 122.163 70.6681 124.536 70.6681 126.95Z" fill="white"/>
<path d="M140.348 123.281C140.348 123 140.35 122.719 140.351 122.437C140.355 121.767 140.358 121.074 140.34 120.395C140.335 120.197 140.35 119.91 140.54 119.713C140.662 119.587 140.829 119.524 141.036 119.524C141.126 119.524 141.225 119.537 141.338 119.56L141.585 119.615V127.388L140.348 127.501V123.281Z" fill="white"/>
<path d="M141.336 126.947C141.134 126.965 140.958 126.981 140.721 127.002C140.721 125.696 140.721 124.435 140.721 123.176C140.721 122.222 140.739 121.268 140.714 120.316C140.701 119.871 140.857 119.699 141.336 119.803C141.336 122.165 141.336 124.536 141.336 126.947Z" fill="white"/>
</g>
<defs>
<clipPath id="clip0_19_957">
<rect width="213" height="127.999" fill="white"/>
</clipPath>
</defs>
</svg>
