<svg width="157" height="32" viewBox="0 0 157 32" fill="none" xmlns="http://www.w3.org/2000/svg">
<path d="M20.9887 32C20.8838 32 20.8054 32 20.727 32C13.9215 32 7.11594 32 0.310891 32C0.000685133 32 0.000211132 31.9995 0.000211132 31.6941C0.000211132 27.867 -0.00074105 24.0393 0.00400942 20.2121C0.00400942 20.084 0.0272865 19.9363 0.092843 19.831C1.1427 18.1492 2.2011 16.4726 3.25808 14.7951C3.27851 14.7627 3.30321 14.7332 3.35167 14.6679C4.05474 15.7546 4.7445 16.8218 5.45517 17.92C5.51456 17.8352 5.55921 17.7752 5.59959 17.7123C6.81144 15.8423 8.02186 13.9709 9.23703 12.1033C9.30876 11.9932 9.31303 11.9208 9.24035 11.8093C7.46557 9.07554 5.69413 6.3394 3.92172 3.60373C3.8975 3.56609 3.86567 3.53322 3.81626 3.47128C2.55169 5.33699 1.30089 7.18316 0.0177876 9.0765C0.00781165 8.9774 0.000211132 8.935 0.000211132 8.89212C-0.000263915 6.03353 0.000211132 3.17494 0.000211132 0.316351C0.000211132 0 0.000685019 0 0.301865 0C7.10739 0 13.9129 0 20.718 0C20.803 0 20.888 0 20.9873 0C20.9873 3.02725 20.9873 6.02543 20.9873 9.02409C20.9745 9.03409 20.9621 9.04458 20.9493 9.05458C19.6482 7.20174 18.3475 5.34937 17.0254 3.46652C16.9613 3.55847 16.9119 3.62564 16.8663 3.69568C15.1191 6.39085 13.3723 9.08603 11.6241 11.7807C11.5572 11.8836 11.513 11.9618 11.5999 12.0952C12.8355 13.9876 14.063 15.8857 15.2934 17.7819C15.3181 17.82 15.3485 17.8547 15.3936 17.9143C16.1 16.8309 16.796 15.7646 17.5133 14.6646C17.5803 14.7622 17.633 14.8351 17.6819 14.9104C18.766 16.5703 19.8505 18.2302 20.9308 19.8924C20.974 19.9591 20.9973 20.0521 20.9973 20.1326C21.0006 24.0236 21.0001 27.9146 20.9997 31.8051C21.0001 31.859 20.994 31.9128 20.9887 32ZM10.4256 25.815C10.4707 25.753 10.4907 25.7287 10.5073 25.7025C11.7543 23.7144 12.9989 21.7248 14.2507 19.74C14.3376 19.6023 14.301 19.5161 14.226 19.4022C13.4512 18.2226 12.6797 17.041 11.9073 15.8599C11.4218 15.1177 10.9363 14.3754 10.4389 13.615C10.389 13.6803 10.3486 13.7265 10.3149 13.7774C9.08169 15.6517 7.85131 17.5279 6.61286 19.3989C6.51833 19.5418 6.52498 19.6361 6.61429 19.7767C7.78196 21.6181 8.9425 23.4638 10.1049 25.3085C10.2061 25.4681 10.3073 25.6273 10.4256 25.815Z" fill="#1A1A1A"/>
<g clip-path="url(#clip0_2001_1200)">
<path d="M135.753 8.61124C134.405 10.2027 133.124 11.7141 131.83 13.2419C133.215 15.3569 134.594 17.4606 136.006 19.6153C137.766 15.9028 139.502 12.2398 141.283 8.48242C143.015 12.1342 144.711 15.7119 146.407 19.2888C146.434 19.2835 146.461 19.279 146.488 19.2738C146.488 15.7426 146.488 12.2121 146.488 8.68089C146.52 8.66291 146.551 8.64494 146.582 8.62697C149.371 10.9854 152.161 13.343 155.021 15.7613C155.021 13.3422 155.021 11.0086 155.021 8.64269C155.71 8.64269 156.349 8.64269 156.999 8.64269C156.999 12.3746 156.999 16.0863 156.999 19.8812C154.142 17.5692 151.338 15.2992 148.463 12.9715C148.463 15.3209 148.463 17.5827 148.463 19.9238C147.763 19.8901 147.112 19.8505 146.461 19.8295C145.9 19.8115 145.338 19.8025 144.777 19.813C144.548 19.8175 144.429 19.7538 144.324 19.5367C143.413 17.6381 142.487 15.7463 141.565 13.8538C141.485 13.6897 141.399 13.5295 141.281 13.301C140.92 14.0343 140.591 14.6986 140.266 15.3644C139.583 16.7641 138.906 18.1676 138.212 19.5614C138.157 19.673 137.988 19.7928 137.868 19.7965C136.61 19.834 135.351 19.8392 134.093 19.8767C133.802 19.8857 133.645 19.7808 133.494 19.5464C132.538 18.0702 131.567 16.6038 130.601 15.1337C130.554 15.0633 130.503 14.9959 130.424 14.8843C129.939 15.4205 129.467 15.9298 129.014 16.4548C128.946 16.5342 128.945 16.6877 128.944 16.8068C128.939 17.6808 128.941 18.5541 128.941 19.4281C128.941 19.5621 128.941 19.6954 128.941 19.8542C124.842 19.8542 120.788 19.8542 116.704 19.8542C116.704 17.6808 116.704 15.5164 116.704 13.3273C119.066 13.3273 121.418 13.3273 123.795 13.3273C123.795 13.8687 123.795 14.3975 123.795 14.9682C122.142 14.9682 120.498 14.9682 118.834 14.9682C118.834 15.965 118.834 16.9221 118.834 17.9062C121.505 17.9062 124.182 17.9062 126.891 17.9062C126.891 14.8304 126.891 11.753 126.891 8.64194C127.585 8.64194 128.247 8.64194 128.948 8.64194C128.948 10.3585 128.948 12.0608 128.948 13.8762C129.121 13.6733 129.223 13.5564 129.322 13.4366C130.564 11.938 131.813 10.4439 133.043 8.93478C133.247 8.68388 133.455 8.59027 133.771 8.60225C134.392 8.62696 135.014 8.61124 135.753 8.61124Z" fill="#1A1A1A"/>
<path d="M113.581 4.29395C114.003 9.53522 114.417 14.6798 114.832 19.8483C113.816 19.8483 112.848 19.8483 111.837 19.8483C111.588 16.8453 111.341 13.8542 111.084 10.7439C109.414 12.599 107.812 14.3783 106.18 16.1922C104.6 14.4353 103.03 12.689 101.397 10.8737C101.142 13.9194 100.894 16.8738 100.643 19.8453C99.6321 19.8453 98.6405 19.8453 97.6055 19.8453C98.0214 14.6745 98.4352 9.52997 98.8564 4.2947C101.344 6.98132 103.772 9.60345 106.219 12.2458C108.665 9.60345 111.087 6.98731 113.581 4.29395Z" fill="#1A1A1A"/>
<path d="M124.718 8.63086C124.499 9.1761 124.299 9.69167 124.079 10.1983C124.047 10.2718 123.916 10.3474 123.831 10.3474C121.486 10.3534 119.141 10.3504 116.795 10.3467C116.772 10.3467 116.749 10.3296 116.704 10.3118C116.704 9.76807 116.704 9.21616 116.704 8.63086C119.356 8.63086 122.004 8.63086 124.718 8.63086Z" fill="#1A1A1A"/>
<path d="M60.4501 19.8887C56.296 19.8887 52.2108 19.8887 48.0986 19.8887C48.0986 17.6995 48.0986 15.538 48.0986 13.3533C50.4568 13.3533 52.806 13.3533 55.1731 13.3533C55.1731 13.9026 55.1731 14.4325 55.1731 15.0051C53.5172 15.0051 51.8762 15.0051 50.2142 15.0051C50.2142 16.002 50.2142 16.9563 50.2142 17.9345C52.9602 17.9345 55.6971 17.9345 58.4813 17.9345C58.4813 14.8554 58.4813 11.7733 58.4813 8.57598C61.3567 11.0092 64.1476 13.3712 66.9766 15.7655C66.9766 13.3181 66.9766 10.9156 66.9766 8.48242C71.4691 8.48242 75.984 8.48242 80.5626 8.48242C78.4777 11.6476 76.422 14.7671 74.3393 17.9293C77.0284 17.9293 79.6703 17.9293 82.3406 17.9293C82.3406 14.8367 82.3406 11.7479 82.3406 8.63061C83.0697 8.63061 83.772 8.63061 84.4989 8.63061C84.4989 12.3623 84.4989 16.0986 84.4989 19.8685C79.8589 19.8685 75.2145 19.8685 70.4817 19.8685C72.5621 16.7108 74.6178 13.5905 76.702 10.4261C74.1192 10.4261 71.5866 10.4261 69.0009 10.4261C69.0009 13.5561 69.0009 16.6883 69.0009 19.9238C66.1135 17.5842 63.3091 15.3127 60.4509 12.997C60.4501 15.3217 60.4501 17.5917 60.4501 19.8887Z" fill="#1A1A1A"/>
<path d="M44.9735 4.29395C45.3939 9.51068 45.8075 14.6391 46.2264 19.8401C46.0181 19.8401 45.839 19.8401 45.6599 19.8401C44.9735 19.8401 44.2863 19.8237 43.6006 19.8476C43.2813 19.8588 43.2109 19.7353 43.1876 19.4442C42.9666 16.6113 42.7305 13.7799 42.4982 10.9485C42.4952 10.914 42.4817 10.8811 42.451 10.7614C40.8113 12.5809 39.2083 14.3584 37.5739 16.1719C36.0016 14.4258 34.4294 12.6804 32.792 10.8616C32.5364 13.8921 32.2876 16.8456 32.0366 19.8177C31.0256 19.8177 30.0454 19.8177 29 19.8177C29.4144 14.6675 29.8281 9.53463 30.25 4.29469C32.7373 6.97566 35.1638 9.59151 37.6121 12.2313C40.0559 9.59675 42.4854 6.97716 44.9735 4.29395Z" fill="#1A1A1A"/>
<path d="M89.356 18.1612C91.5203 18.1612 93.615 18.1612 95.733 18.1612C95.733 18.7531 95.733 19.3233 95.733 19.9227C92.9131 19.9227 90.1037 19.9227 87.2695 19.9227C87.2695 16.1613 87.2695 12.4081 87.2695 8.63086C87.9505 8.63086 88.63 8.63086 89.356 8.63086C89.356 11.7891 89.356 14.9503 89.356 18.1612Z" fill="#1A1A1A"/>
<path d="M48.0986 10.3508C48.0986 9.759 48.0986 9.20934 48.0986 8.63086C50.7567 8.63086 53.4073 8.63086 56.1127 8.63086C55.8923 9.17757 55.6854 9.70951 55.459 10.2333C55.4328 10.2946 55.3016 10.3449 55.2191 10.3456C52.8601 10.3515 50.5019 10.3508 48.0986 10.3508Z" fill="#1A1A1A"/>
<path d="M80.4018 24.9505L79.8584 27.7101L79.1055 27.5635L80.0261 22.9321L80.3869 22.8862L81.6535 26.0081L82.9416 22.8389L83.2808 22.908L84.1985 27.5545L83.4501 27.7123L82.9036 24.943L81.652 27.9987L80.4018 24.9505Z" fill="#1A1A1A"/>
<path d="M83.9747 27.3785C83.8304 27.409 83.7271 27.4306 83.5917 27.4589C83.3864 26.4274 83.1849 25.413 82.9633 24.2966C82.5111 25.3929 82.0998 26.3909 81.6529 27.476C81.2052 26.3916 80.7932 25.3951 80.3425 24.3048C80.1216 25.4197 79.9223 26.4244 79.717 27.4604C79.5876 27.4351 79.4828 27.4149 79.3311 27.3859C79.6174 25.9567 79.9022 24.5342 80.1871 23.1124C80.2153 23.1087 80.2443 23.1049 80.2726 23.1012C80.7218 24.2005 81.171 25.299 81.6544 26.4825C82.1437 25.2864 82.5981 24.1752 83.0533 23.064C83.0756 23.0684 83.0971 23.0729 83.1195 23.0774C83.4006 24.4947 83.6832 25.9112 83.9747 27.3785Z" fill="#1A1A1A"/>
<path d="M124.156 27.6996C122.809 27.6951 121.74 26.6327 121.723 25.2809C121.715 24.6361 121.961 24.0272 122.416 23.5661C122.879 23.0975 123.498 22.8389 124.161 22.8389H124.17C125.524 22.8434 126.587 23.905 126.591 25.2554C126.592 25.9197 126.343 26.5367 125.887 26.9941C125.434 27.4484 124.822 27.6989 124.164 27.6989H124.156V27.6996ZM124.173 23.5894C123.235 23.5901 122.526 24.3069 122.522 25.2569C122.52 25.7285 122.689 26.1596 122.999 26.47C123.297 26.7706 123.706 26.9363 124.151 26.9371C125.081 26.9371 125.811 26.2053 125.817 25.2719C125.82 24.816 125.648 24.3894 125.333 24.0707C125.024 23.7596 124.612 23.5886 124.175 23.5886V23.4012L124.173 23.5894Z" fill="#1A1A1A"/>
<path d="M126.441 25.2191C126.445 26.4879 125.458 27.4793 124.194 27.4756C122.954 27.4718 121.963 26.4864 121.947 25.2416C121.932 23.9989 122.949 22.9843 124.207 22.9888C125.458 22.9933 126.437 23.9704 126.441 25.2191ZM122.372 25.2183C122.368 26.281 123.149 27.0856 124.188 27.0879C125.215 27.0901 126.036 26.2712 126.042 25.2363C126.05 24.1999 125.231 23.363 124.21 23.3637C123.172 23.3645 122.376 24.1677 122.372 25.2183Z" fill="#1A1A1A"/>
<path d="M60.2263 24.5819V27.5449L59.4824 27.695V22.54L62.3247 25.9339L62.3262 25.4992C62.3284 24.8169 62.3314 24.1112 62.321 23.4183C62.3195 23.2945 62.3307 23.1151 62.4488 22.995C62.5236 22.9191 62.626 22.8801 62.7523 22.8801C62.8054 22.8801 62.863 22.8869 62.928 22.9004L63.0775 22.9311V27.999L60.2263 24.5819Z" fill="#1A1A1A"/>
<path d="M60.003 24.0699C60.003 25.2434 60.003 26.3077 60.003 27.384C59.8684 27.411 59.763 27.4326 59.6328 27.4588C59.6328 26.0108 59.6328 24.583 59.6328 23.064C60.5834 24.1948 61.4884 25.2711 62.445 26.4095C62.4592 26.2419 62.475 26.1402 62.4757 26.0392C62.4779 25.1679 62.4847 24.2958 62.472 23.4245C62.4682 23.1447 62.5587 23.0333 62.8534 23.0939C62.8534 24.5277 62.8534 25.9525 62.8534 27.476C61.8878 26.3212 60.9791 25.236 60.003 24.0699Z" fill="#1A1A1A"/>
<path d="M134.982 24.5944V27.5809L134.231 27.7084V22.54L137.085 25.9416C137.085 25.805 137.085 25.6692 137.086 25.5326C137.088 24.8382 137.091 24.1197 137.08 23.414C137.078 23.2933 137.089 23.1182 137.206 22.9997C137.282 22.9219 137.388 22.8827 137.521 22.8827C137.567 22.8827 137.614 22.8872 137.668 22.8955L137.827 22.9212V27.999L134.982 24.5944Z" fill="#1A1A1A"/>
<path d="M134.829 24.0773C134.829 25.2576 134.829 26.3296 134.829 27.4128C134.692 27.4362 134.585 27.4542 134.455 27.476C134.455 26.0219 134.455 24.5881 134.455 23.064C135.415 24.2037 136.322 25.2816 137.275 26.4123C137.291 26.2634 137.309 26.1753 137.309 26.0866C137.312 25.1966 137.319 24.306 137.306 23.416C137.301 23.149 137.388 23.0414 137.676 23.088C137.676 24.5158 137.676 25.9474 137.676 27.4715C136.714 26.325 135.805 25.241 134.829 24.0773Z" fill="#1A1A1A"/>
<path d="M95.1634 27.5491C95.0888 27.4006 95.0142 27.2551 94.941 27.1096C94.7523 26.7379 94.574 26.3873 94.4009 26.0247C94.3397 25.8965 94.2995 25.8762 94.2002 25.8762H94.1808C94.0809 25.8799 93.9742 25.8814 93.8451 25.8814C93.7593 25.8814 93.6735 25.8807 93.587 25.8799C93.5019 25.8792 93.4169 25.8784 93.3326 25.8784C93.1364 25.8784 92.9872 25.8829 92.8484 25.892C92.7731 25.8973 92.6462 25.9734 92.6112 26.0352C92.4112 26.3851 92.2322 26.7402 92.0434 27.1171C91.9741 27.2551 91.9039 27.3946 91.8323 27.534L91.7637 27.669L91.0146 27.4669L93.5236 22.54L95.9579 27.4164L95.2395 27.6999L95.1634 27.5491ZM93.9406 25.1079L93.5057 24.2258L93.0819 25.1079H93.9406Z" fill="#1A1A1A"/>
<path d="M91.6202 27.4598C91.4977 27.4268 91.3939 27.3991 91.2393 27.3578C91.9855 25.9012 92.719 24.4701 93.4779 22.9888C94.2159 24.4574 94.9292 25.8787 95.6582 27.33C95.5297 27.3803 95.4229 27.4223 95.2877 27.4756C95.0256 26.9578 94.7664 26.464 94.5266 25.962C94.4407 25.7819 94.3391 25.7008 94.1314 25.7083C93.6848 25.7248 93.2366 25.6948 92.7914 25.7241C92.6547 25.7331 92.4725 25.8427 92.4045 25.9605C92.1259 26.443 91.8839 26.9473 91.6202 27.4598ZM93.4584 23.827C93.1993 24.3636 92.9759 24.8251 92.7384 25.3174C93.2456 25.3174 93.6945 25.3174 94.1987 25.3174C93.9507 24.8183 93.7221 24.3576 93.4584 23.827Z" fill="#1A1A1A"/>
<path d="M51.4196 27.5427C51.347 27.3961 51.2737 27.2517 51.2019 27.108C51.0202 26.747 50.8489 26.4056 50.6836 26.0521C50.611 25.8965 50.5572 25.8686 50.442 25.8686C50.433 25.8686 50.4233 25.8686 50.4128 25.8694C50.3044 25.8747 50.187 25.8777 50.0441 25.8777C49.9596 25.8777 49.8751 25.8769 49.7905 25.8762C49.7075 25.8754 49.6245 25.8747 49.5415 25.8747C49.3687 25.8747 49.2356 25.8784 49.1114 25.8867C49.0321 25.892 48.9057 25.9657 48.8698 26.0266C48.6686 26.3748 48.4876 26.7312 48.2961 27.1088C48.2251 27.2494 48.1525 27.3916 48.0785 27.536L48.0059 27.6766L47.2744 27.4412L49.7831 22.54L52.2177 27.4051L51.4966 27.6999L51.4196 27.5427ZM50.2027 25.1053L49.7666 24.2239L49.3305 25.1053H50.2027Z" fill="#1A1A1A"/>
<path d="M47.9444 27.4651C47.8112 27.4224 47.7184 27.3925 47.5732 27.346C48.3185 25.8969 49.0532 24.4672 49.8134 22.9888C50.5504 24.4552 51.2634 25.8736 51.9922 27.3236C51.865 27.3752 51.7588 27.4187 51.6188 27.4756C51.3667 26.9693 51.116 26.487 50.8848 25.995C50.7898 25.792 50.6761 25.6932 50.4359 25.7051C50.0012 25.7269 49.5642 25.6924 49.1303 25.7224C48.9926 25.7321 48.8078 25.8377 48.7397 25.9545C48.4599 26.4361 48.2167 26.9394 47.9444 27.4651ZM49.7992 23.8336C49.5351 24.3646 49.3076 24.8222 49.0607 25.3187C49.5829 25.3187 50.0326 25.3187 50.5369 25.3187C50.29 24.8222 50.0611 24.3616 49.7992 23.8336Z" fill="#1A1A1A"/>
<path d="M103.961 23.6675H102.698L102.909 22.9141H105.769V23.657H104.725V27.5209L103.961 27.6252V23.6675Z" fill="#1A1A1A"/>
<path d="M104.195 23.5194C103.77 23.5194 103.405 23.5194 102.999 23.5194C103.042 23.363 103.074 23.2474 103.104 23.1387C103.953 23.1387 104.776 23.1387 105.62 23.1387C105.62 23.2641 105.62 23.3698 105.62 23.5088C105.279 23.5088 104.951 23.5088 104.583 23.5088C104.583 24.8277 104.583 26.1148 104.583 27.4223C104.442 27.442 104.338 27.4563 104.195 27.4759C104.195 26.1594 104.195 24.87 104.195 23.5194Z" fill="#1A1A1A"/>
<path d="M70.8719 25.8056C70.8719 25.5814 70.8727 25.3572 70.8735 25.133C70.875 24.5743 70.8772 23.9963 70.8674 23.4288C70.8652 23.3118 70.8765 23.1435 70.9916 23.0265C71.0661 22.9521 71.1669 22.9141 71.2926 22.9141C71.3445 22.9141 71.4017 22.92 71.4657 22.9334L71.6162 22.964V27.5612L70.8719 27.6252V25.8056Z" fill="#1A1A1A"/>
<path d="M71.4663 27.3698C71.3476 27.3803 71.2424 27.3893 71.0965 27.4012C71.0965 26.842 71.0965 26.3105 71.0965 25.7782C71.0965 24.982 71.1056 24.1859 71.0919 23.3904C71.0874 23.1213 71.1842 23.0226 71.4663 23.0794C71.4663 24.4976 71.4663 25.9218 71.4663 27.3698Z" fill="#1A1A1A"/>
<path d="M113.34 25.1686C113.34 24.9999 113.34 24.8312 113.341 24.6617C113.343 24.26 113.346 23.8439 113.334 23.4368C113.331 23.3181 113.34 23.1456 113.455 23.0275C113.528 22.9519 113.628 22.9141 113.753 22.9141C113.807 22.9141 113.867 22.9216 113.934 22.936L114.083 22.9685V27.6327L113.34 27.7V25.1686Z" fill="#1A1A1A"/>
<path d="M113.933 27.3683C113.811 27.3788 113.706 27.3885 113.564 27.4012C113.564 26.6177 113.564 25.8611 113.564 25.1053C113.564 24.5333 113.574 23.9607 113.559 23.3895C113.551 23.1226 113.645 23.0194 113.933 23.0815C113.933 24.499 113.933 25.9217 113.933 27.3683Z" fill="#1A1A1A"/>
</g>
<defs>
<clipPath id="clip0_2001_1200">
<rect width="128" height="24" fill="white" transform="translate(29 4)"/>
</clipPath>
</defs>
</svg>
