<svg width="213" height="40" viewBox="0 0 213 40" fill="none" xmlns="http://www.w3.org/2000/svg">
<g clip-path="url(#clip0_117_2251)">
<path d="M177.643 7.68539C175.4 10.3379 173.269 12.8568 171.115 15.4031C173.421 18.9281 175.714 22.4344 178.065 26.0255C180.994 19.8381 183.882 13.733 186.847 7.4707C189.729 13.557 192.551 19.5198 195.373 25.4813C195.418 25.4725 195.463 25.465 195.508 25.4563C195.508 19.5709 195.508 13.6868 195.508 7.80148C195.561 7.77152 195.612 7.74157 195.664 7.71161C200.306 11.6423 204.947 15.5716 209.707 19.6021C209.707 15.5704 209.707 11.6809 209.707 7.73782C210.854 7.73782 211.917 7.73782 212.999 7.73782C212.999 13.9577 212.999 20.1439 212.999 26.4686C208.245 22.6153 203.578 18.832 198.793 14.9525C198.793 18.8682 198.793 22.6378 198.793 26.5397C197.629 26.4836 196.546 26.4174 195.462 26.3825C194.529 26.3525 193.594 26.3375 192.66 26.355C192.279 26.3625 192.081 26.2564 191.907 25.8944C190.391 22.7302 188.85 19.5772 187.316 16.4229C187.182 16.1496 187.039 15.8825 186.843 15.5017C186.243 16.7238 185.695 17.8309 185.153 18.9406C184.017 21.2735 182.891 23.6127 181.736 25.9356C181.644 26.1216 181.363 26.3213 181.163 26.3276C179.07 26.39 176.975 26.3987 174.881 26.4611C174.397 26.4761 174.136 26.3013 173.884 25.9106C172.293 23.4504 170.679 21.0064 169.07 18.5561C168.993 18.4388 168.908 18.3265 168.776 18.1405C167.969 19.0342 167.184 19.883 166.43 20.758C166.317 20.8903 166.314 21.1462 166.313 21.3447C166.304 22.8013 166.308 24.2568 166.308 25.7134C166.308 25.9369 166.308 26.159 166.308 26.4237C159.488 26.4237 152.742 26.4237 145.945 26.4237C145.945 22.8013 145.945 19.194 145.945 15.5454C149.876 15.5454 153.79 15.5454 157.745 15.5454C157.745 16.4479 157.745 17.3291 157.745 18.2803C154.994 18.2803 152.259 18.2803 149.489 18.2803C149.489 19.9417 149.489 21.5369 149.489 23.177C153.934 23.177 158.389 23.177 162.897 23.177C162.897 18.0506 162.897 12.9217 162.897 7.73657C164.052 7.73657 165.154 7.73657 166.32 7.73657C166.32 10.5975 166.32 13.4347 166.32 16.4604C166.607 16.1221 166.777 15.9274 166.942 15.7277C169.009 13.23 171.088 10.7398 173.134 8.22463C173.474 7.80647 173.82 7.65044 174.346 7.67042C175.379 7.71161 176.414 7.68539 177.643 7.68539Z" fill="#1A1A1A"/>
<path d="M140.748 0.490234C141.451 9.22569 142.139 17.7999 142.83 26.4142C141.14 26.4142 139.529 26.4142 137.846 26.4142C137.432 21.4091 137.02 16.424 136.593 11.2402C133.814 14.332 131.149 17.2975 128.432 20.3206C125.803 17.3925 123.19 14.482 120.474 11.4564C120.048 16.5327 119.636 21.4566 119.219 26.4092C117.537 26.4092 115.886 26.4092 114.164 26.4092C114.856 17.7912 115.545 9.21694 116.246 0.491485C120.385 4.96919 124.426 9.33941 128.497 13.7434C132.568 9.33941 136.599 4.97918 140.748 0.490234Z" fill="#1A1A1A"/>
<path d="M159.281 7.71875C158.916 8.62748 158.584 9.48676 158.218 10.3312C158.164 10.4536 157.947 10.5797 157.805 10.5797C153.902 10.5896 150 10.5847 146.096 10.5785C146.058 10.5785 146.02 10.55 145.945 10.5204C145.945 9.61411 145.945 8.69425 145.945 7.71875C150.358 7.71875 154.765 7.71875 159.281 7.71875Z" fill="#1A1A1A"/>
<path d="M52.3349 26.4811C45.4222 26.4811 38.6242 26.4811 31.7812 26.4811C31.7812 22.8325 31.7812 19.23 31.7812 15.5888C35.7054 15.5888 39.6145 15.5888 43.5536 15.5888C43.5536 16.5044 43.5536 17.3876 43.5536 18.3418C40.798 18.3418 38.0673 18.3418 35.3018 18.3418C35.3018 20.0034 35.3018 21.5938 35.3018 23.2242C39.8712 23.2242 44.4256 23.2242 49.0586 23.2242C49.0586 18.0923 49.0586 12.9555 49.0586 7.62663C53.8435 11.6819 58.4877 15.6187 63.1954 19.6092C63.1954 15.5302 63.1954 11.526 63.1954 7.4707C70.6712 7.4707 78.1843 7.4707 85.8033 7.4707C82.3339 12.746 78.9131 17.9451 75.4474 23.2154C79.9221 23.2154 84.3184 23.2154 88.762 23.2154C88.762 18.0611 88.762 12.9131 88.762 7.71769C89.9754 7.71769 91.1439 7.71769 92.3535 7.71769C92.3535 13.9372 92.3535 20.1643 92.3535 26.4474C84.6323 26.4474 76.9037 26.4474 69.028 26.4474C72.49 21.1847 75.9108 15.9842 79.379 10.7102C75.0811 10.7102 70.8668 10.7102 66.5639 10.7102C66.5639 15.9268 66.5639 21.1472 66.5639 26.5397C61.7591 22.6404 57.0925 18.8545 52.3362 14.995C52.3349 18.8695 52.3349 22.6528 52.3349 26.4811Z" fill="#1A1A1A"/>
<path d="M26.5808 0.490234C27.2804 9.1848 27.9688 17.7322 28.6659 26.4005C28.3192 26.4005 28.0212 26.4005 27.7231 26.4005C26.5808 26.4005 25.4373 26.3731 24.2962 26.413C23.765 26.4317 23.6478 26.2259 23.6091 25.7406C23.2412 21.0191 22.8484 16.3001 22.4618 11.5811C22.4568 11.5237 22.4344 11.4688 22.3833 11.2692C19.6547 14.3017 16.9873 17.2644 14.2675 20.2869C11.6512 17.3766 9.03486 14.4676 6.31006 11.4364C5.88482 16.4872 5.4708 21.4096 5.05304 26.3631C3.37077 26.3631 1.73963 26.3631 0 26.3631C0.689617 17.7796 1.37799 9.22472 2.08008 0.491483C6.21903 4.95976 10.257 9.31952 14.3311 13.7192C18.3977 9.32825 22.4406 4.96226 26.5808 0.490234Z" fill="#1A1A1A"/>
<path d="M100.437 23.6027C104.038 23.6027 107.524 23.6027 111.049 23.6027C111.049 24.5892 111.049 25.5394 111.049 26.5385C106.356 26.5385 101.681 26.5385 96.9648 26.5385C96.9648 20.2694 96.9648 14.0142 96.9648 7.71875C98.0981 7.71875 99.2288 7.71875 100.437 7.71875C100.437 12.9825 100.437 18.2512 100.437 23.6027Z" fill="#1A1A1A"/>
<path d="M31.7812 10.5853C31.7812 9.59899 31.7812 8.68288 31.7812 7.71875C36.2045 7.71875 40.6153 7.71875 45.1171 7.71875C44.7504 8.62994 44.4061 9.5165 44.0294 10.3895C43.9857 10.4917 43.7674 10.5754 43.6302 10.5767C39.7047 10.5865 35.7804 10.5853 31.7812 10.5853Z" fill="#1A1A1A"/>
<path d="M85.5361 34.9178L84.6318 39.5171L83.3789 39.2728L84.9109 31.5538L85.5113 31.4774L87.619 36.6806L89.7625 31.3984L90.327 31.5137L91.854 39.2577L90.6086 39.5209L89.6993 34.9052L87.6165 39.9982L85.5361 34.9178Z" fill="#1A1A1A"/>
<path d="M91.4812 38.9643C91.2411 39.0151 91.0691 39.0511 90.8439 39.0983C90.5023 37.3791 90.1669 35.6885 89.7982 33.8278C89.0457 35.655 88.3613 37.3183 87.6176 39.1269C86.8726 37.3195 86.1869 35.6587 85.437 33.8414C85.0694 35.6997 84.7378 37.3742 84.3962 39.1008C84.1809 39.0586 84.0064 39.0251 83.7539 38.9767C84.2304 36.5946 84.7044 34.2238 85.1783 31.8541C85.2254 31.8479 85.2736 31.8417 85.3207 31.8355C86.0681 33.6677 86.8156 35.4986 87.62 37.471C88.4344 35.4775 89.1905 33.6254 89.9479 31.7734C89.985 31.7809 90.0209 31.7883 90.058 31.7958C90.5258 34.158 90.9961 36.5189 91.4812 38.9643Z" fill="#1A1A1A"/>
<path d="M158.346 39.4997C156.104 39.4922 154.326 37.7215 154.297 35.4684C154.283 34.3938 154.694 33.3791 155.451 32.6106C156.22 31.8296 157.252 31.3984 158.355 31.3984H158.369C160.622 31.4059 162.392 33.1754 162.398 35.4259C162.401 36.5331 161.985 37.5615 161.227 38.3238C160.472 39.081 159.455 39.4984 158.359 39.4984H158.346V39.4997ZM158.374 32.6493C156.814 32.6505 155.633 33.8452 155.627 35.4284C155.624 36.2144 155.905 36.933 156.42 37.4503C156.916 37.9514 157.597 38.2276 158.337 38.2288C159.885 38.2288 161.1 37.0092 161.111 35.4534C161.116 34.6937 160.829 33.9826 160.304 33.4515C159.79 32.933 159.105 32.648 158.377 32.648V32.3356L158.374 32.6493Z" fill="#1A1A1A"/>
<path d="M162.148 35.3656C162.154 37.4804 160.511 39.1327 158.408 39.1265C156.344 39.1202 154.696 37.4779 154.67 35.4031C154.644 33.332 156.337 31.641 158.43 31.6485C160.512 31.656 162.142 33.2846 162.148 35.3656ZM155.376 35.3643C155.37 37.1354 156.67 38.4765 158.398 38.4803C160.108 38.484 161.473 37.1192 161.484 35.3943C161.497 33.667 160.134 32.2722 158.435 32.2734C156.707 32.2747 155.383 33.6133 155.376 35.3643Z" fill="#1A1A1A"/>
<path d="M51.9624 34.3035V39.2417L50.7246 39.492V30.9004L55.4543 36.5568L55.4568 35.8324C55.4606 34.6951 55.4655 33.519 55.4481 32.3642C55.4456 32.1578 55.4643 31.8588 55.6608 31.6586C55.7852 31.5322 55.9557 31.4672 56.1659 31.4672C56.2542 31.4672 56.35 31.4784 56.4583 31.5009L56.7071 31.5522V39.9987L51.9624 34.3035Z" fill="#1A1A1A"/>
<path d="M51.5907 33.4501C51.5907 35.4059 51.5907 37.1797 51.5907 38.9735C51.3667 39.0184 51.1912 39.0546 50.9746 39.0982C50.9746 36.6849 50.9746 34.3052 50.9746 31.7734C52.5565 33.6582 54.0625 35.452 55.6543 37.3493C55.678 37.07 55.7041 36.9005 55.7054 36.7322C55.7091 35.28 55.7203 33.8265 55.6991 32.3743C55.6929 31.9081 55.8435 31.7223 56.3339 31.8233C56.3339 34.2129 56.3339 36.5876 56.3339 39.1269C54.7271 37.2022 53.2149 35.3934 51.5907 33.4501Z" fill="#1A1A1A"/>
<path d="M176.36 34.3244V39.3018L175.111 39.5144V30.9004L179.859 36.5697C179.86 36.342 179.86 36.1156 179.862 35.8879C179.865 34.7307 179.87 33.5331 179.852 32.357C179.848 32.1558 179.867 31.8639 180.061 31.6664C180.188 31.5369 180.364 31.4715 180.586 31.4715C180.661 31.4715 180.74 31.479 180.831 31.4929L181.094 31.5356V39.9987L176.36 34.3244Z" fill="#1A1A1A"/>
<path d="M176.106 33.4623C176.106 35.4295 176.106 37.2161 176.106 39.0215C175.878 39.0604 175.7 39.0905 175.484 39.1269C175.484 36.7033 175.484 34.3136 175.484 31.7734C177.081 33.6729 178.591 35.4696 180.176 37.354C180.204 37.1058 180.234 36.9591 180.234 36.8111C180.238 35.3279 180.25 33.8434 180.228 32.3602C180.22 31.9151 180.365 31.7358 180.844 31.8136C180.844 34.1932 180.844 36.5792 180.844 39.1193C179.243 37.2086 177.731 35.4019 176.106 33.4623Z" fill="#1A1A1A"/>
<path d="M110.101 39.2488C109.977 39.0013 109.853 38.7588 109.731 38.5163C109.417 37.8968 109.12 37.3125 108.832 36.7081C108.73 36.4945 108.663 36.4606 108.498 36.4606H108.466C108.3 36.4669 108.122 36.4694 107.907 36.4694C107.765 36.4694 107.622 36.4681 107.478 36.4669C107.336 36.4656 107.195 36.4644 107.054 36.4644C106.728 36.4644 106.48 36.4719 106.249 36.487C106.123 36.4958 105.912 36.6227 105.854 36.7257C105.521 37.3087 105.223 37.9006 104.909 38.5289C104.794 38.7588 104.677 38.9913 104.558 39.2237L104.444 39.4486L103.197 39.1119L107.372 30.9004L111.423 39.0277L110.228 39.5002L110.101 39.2488ZM108.066 35.1802L107.342 33.71L106.637 35.1802H108.066Z" fill="#1A1A1A"/>
<path d="M104.204 39.1002C104 39.0452 103.828 38.9989 103.57 38.9301C104.812 36.5025 106.033 34.1174 107.295 31.6484C108.524 34.0961 109.711 36.465 110.924 38.8839C110.71 38.9677 110.532 39.0377 110.307 39.1265C109.871 38.2635 109.44 37.4405 109.041 36.6038C108.898 36.3036 108.729 36.1685 108.383 36.181C107.64 36.2086 106.894 36.1585 106.153 36.2073C105.926 36.2223 105.622 36.4049 105.509 36.6013C105.046 37.4055 104.643 38.246 104.204 39.1002ZM107.263 33.0455C106.832 33.9398 106.46 34.7089 106.065 35.5294C106.909 35.5294 107.656 35.5294 108.495 35.5294C108.082 34.6977 107.702 33.9298 107.263 33.0455Z" fill="#1A1A1A"/>
<path d="M37.308 39.2382C37.1873 38.9938 37.0653 38.7531 36.9458 38.5137C36.6433 37.9121 36.3583 37.343 36.0833 36.7539C35.9625 36.4944 35.8729 36.4481 35.6812 36.4481C35.6663 36.4481 35.6501 36.4481 35.6327 36.4493C35.4522 36.4581 35.2568 36.4631 35.0191 36.4631C34.8784 36.4631 34.7378 36.4619 34.5971 36.4606C34.459 36.4593 34.3208 36.4581 34.1827 36.4581C33.8952 36.4581 33.6736 36.4644 33.467 36.4781C33.3351 36.4869 33.1247 36.6098 33.065 36.7113C32.7302 37.2916 32.429 37.8857 32.1103 38.515C31.9921 38.7493 31.8714 38.9863 31.7482 39.2269L31.6274 39.4613L30.4102 39.069L34.5847 30.9004L38.636 39.0088L37.4362 39.5002L37.308 39.2382ZM35.2829 35.1758L34.5573 33.7068L33.8317 35.1758H35.2829Z" fill="#1A1A1A"/>
<path d="M31.5258 39.109C31.3041 39.0379 31.1497 38.9879 30.9082 38.9106C32.1483 36.4953 33.371 34.1124 34.636 31.6484C35.8624 34.0924 37.0489 36.4566 38.2616 38.8731C38.05 38.9592 37.8732 39.0316 37.6403 39.1265C37.2207 38.2827 36.8036 37.4788 36.4189 36.6588C36.2608 36.3205 36.0715 36.1557 35.6719 36.1757C34.9485 36.2119 34.2214 36.1545 33.4992 36.2044C33.2701 36.2206 32.9626 36.3967 32.8493 36.5914C32.3836 37.394 31.979 38.2328 31.5258 39.109ZM34.6123 33.0564C34.1728 33.9414 33.7943 34.7041 33.3834 35.5316C34.2525 35.5316 35.0008 35.5316 35.84 35.5316C35.4291 34.7041 35.0481 33.9364 34.6123 33.0564Z" fill="#1A1A1A"/>
<path d="M124.74 32.7791H122.639L122.99 31.5234H127.749V32.7616H126.011V39.2015L124.74 39.3754V32.7791Z" fill="#1A1A1A"/>
<path d="M125.128 32.5329C124.422 32.5329 123.814 32.5329 123.139 32.5329C123.21 32.2723 123.263 32.0797 123.314 31.8984C124.726 31.8984 126.095 31.8984 127.501 31.8984C127.501 32.1074 127.501 32.2837 127.501 32.5153C126.933 32.5153 126.387 32.5153 125.774 32.5153C125.774 34.7134 125.774 36.8586 125.774 39.0378C125.539 39.0706 125.367 39.0945 125.128 39.1272C125.128 36.9329 125.128 34.7839 125.128 32.5329Z" fill="#1A1A1A"/>
<path d="M69.6778 36.3426C69.6778 35.969 69.6791 35.5953 69.6803 35.2216C69.6829 34.2906 69.6866 33.3272 69.6703 32.3813C69.6666 32.1864 69.6854 31.9058 69.8769 31.7109C70.0009 31.5868 70.1687 31.5234 70.3778 31.5234C70.4642 31.5234 70.5594 31.5334 70.6658 31.5557L70.9163 31.6066V39.2686L69.6778 39.3754V36.3426Z" fill="#1A1A1A"/>
<path d="M70.6661 38.9499C70.4686 38.9673 70.2936 38.9823 70.0508 39.0022C70.0508 38.0702 70.0508 37.1843 70.0508 36.2972C70.0508 34.9702 70.0659 33.6433 70.0432 32.3176C70.0357 31.869 70.1967 31.7045 70.6661 31.7992C70.6661 34.1629 70.6661 36.5364 70.6661 38.9499Z" fill="#1A1A1A"/>
<path d="M140.347 35.281C140.347 34.9998 140.349 34.7186 140.35 34.4362C140.354 33.7666 140.357 33.0731 140.339 32.3947C140.334 32.1968 140.349 31.9093 140.539 31.7126C140.661 31.5865 140.828 31.5234 141.035 31.5234C141.125 31.5234 141.224 31.5361 141.337 31.56L141.584 31.6142V39.3878L140.347 39.5V35.281Z" fill="#1A1A1A"/>
<path d="M141.334 38.9474C141.132 38.9648 140.956 38.981 140.719 39.0022C140.719 37.6964 140.719 36.4354 140.719 35.1756C140.719 34.2224 140.737 33.2679 140.712 32.316C140.699 31.8711 140.855 31.6992 141.334 31.8026C141.334 34.1651 141.334 36.5363 141.334 38.9474Z" fill="#1A1A1A"/>
</g>
<defs>
<clipPath id="clip0_117_2251">
<rect width="213" height="40" fill="white"/>
</clipPath>
</defs>
</svg>
