<svg width="42" height="64" viewBox="0 0 42 64" fill="none" xmlns="http://www.w3.org/2000/svg">
<path d="M41.9775 64C41.7675 64 41.6107 64 41.454 64C27.8429 64 14.2319 64 0.621782 64C0.00137027 64 0.000422264 63.9991 0.000422264 63.3883C0.000422264 55.7339 -0.0014821 48.0786 0.00801884 40.4243C0.00801884 40.1679 0.054573 39.8726 0.185686 39.662C2.28539 36.2984 4.4022 32.9452 6.51616 29.5902C6.55702 29.5254 6.60643 29.4663 6.70334 29.3358C8.10948 31.5093 9.48901 33.6437 10.9103 35.84C11.0291 35.6704 11.1184 35.5504 11.1992 35.4246C13.6229 31.6846 16.0437 27.9418 18.4741 24.2065C18.6175 23.9864 18.6261 23.8416 18.4807 23.6186C14.9311 18.1511 11.3883 12.6788 7.84345 7.20746C7.79499 7.13218 7.73133 7.06643 7.63252 6.94256C5.10337 10.674 2.60178 14.3663 0.0355753 18.153C0.0156233 17.9548 0.000422264 17.87 0.000422264 17.7842C-0.00052783 12.0671 0.000422264 6.34988 0.000422264 0.632701C0.000422264 0 0.00137004 0 0.60373 0C14.2148 0 27.8258 0 41.4359 0C41.606 0 41.7761 0 41.9746 0C41.9746 6.05449 41.9746 12.0509 41.9746 18.0482C41.949 18.0682 41.9243 18.0892 41.8986 18.1092C39.2963 14.4035 36.695 10.6987 34.0508 6.93303C33.9226 7.11693 33.8238 7.25129 33.7326 7.39136C30.2381 12.7817 26.7446 18.1721 23.2483 23.5614C23.1143 23.7673 23.026 23.9235 23.1998 24.1903C25.671 27.9751 28.1261 31.7713 30.5868 35.5637C30.6362 35.6399 30.697 35.7095 30.7873 35.8286C32.2001 33.6618 33.5919 31.5293 35.0266 29.3291C35.1606 29.5245 35.266 29.6702 35.3639 29.8208C37.532 33.1406 39.7011 36.4604 41.8616 39.7849C41.948 39.9183 41.9946 40.1041 41.9946 40.2651C42.0012 48.0472 42.0003 55.8292 41.9993 63.6103C42.0003 63.718 41.9879 63.8256 41.9775 64ZM20.8512 51.6299C20.9414 51.5061 20.9813 51.4575 21.0146 51.4051C23.5086 47.4288 25.9978 43.4496 28.5013 39.48C28.6752 39.2046 28.6021 39.0321 28.4519 38.8044C26.9023 36.4451 25.3594 34.082 23.8145 31.7199C22.8435 30.2353 21.8725 28.7507 20.8778 27.23C20.778 27.3605 20.6973 27.4529 20.6298 27.5549C18.1634 31.3035 15.7026 35.0558 13.2257 38.7977C13.0367 39.0836 13.05 39.2723 13.2286 39.5533C15.5639 43.2362 17.885 46.9276 20.2099 50.617C20.4122 50.9363 20.6146 51.2545 20.8512 51.6299Z" fill="#1A1A1A"/>
</svg>
