<svg width="32" height="32" viewBox="0 0 32 32" fill="none" xmlns="http://www.w3.org/2000/svg">
<rect width="32" height="32" rx="16" fill="white"/>
<path fillRule="evenodd" clipRule="evenodd" d="M10.9888 8.89005C14.3244 8.6291 17.6753 8.6291 21.0108 8.89005L23.2508 9.06605C23.8575 9.11335 24.4309 9.36235 24.8797 9.77339C25.3284 10.1844 25.6266 10.7338 25.7268 11.334C26.2438 14.424 26.2438 17.5771 25.7268 20.666C25.6267 21.2661 25.3286 21.8154 24.8801 22.2264C24.4315 22.6374 23.8584 22.8865 23.2518 22.934L21.0118 23.109C17.6759 23.3701 14.3247 23.3701 10.9888 23.109L8.74884 22.934C8.14215 22.8868 7.56875 22.6377 7.12002 22.2267C6.67129 21.8157 6.37305 21.2663 6.27284 20.666C5.75671 17.5768 5.75671 14.4233 6.27284 11.334C6.37301 10.734 6.6711 10.1847 7.11963 9.77368C7.56816 9.36266 8.14133 9.11356 8.74784 9.06605L10.9888 8.89005ZM13.9998 18.47V13.53C13.9999 13.477 14.0141 13.425 14.0408 13.3792C14.0675 13.3334 14.1059 13.2956 14.1521 13.2694C14.1982 13.2433 14.2504 13.2299 14.3034 13.2305C14.3564 13.2312 14.4083 13.2458 14.4538 13.273L18.5708 15.743C18.6152 15.7697 18.6518 15.8074 18.6773 15.8524C18.7027 15.8975 18.7161 15.9483 18.7161 16C18.7161 16.0518 18.7027 16.1026 18.6773 16.1476C18.6518 16.1927 18.6152 16.2304 18.5708 16.257L14.4538 18.727C14.4083 18.7543 14.3564 18.7689 14.3034 18.7696C14.2504 18.7702 14.1982 18.7568 14.1521 18.7307C14.1059 18.7045 14.0675 18.6667 14.0408 18.6209C14.0141 18.5751 13.9999 18.5231 13.9998 18.47Z" fill="#008FCD"/>
</svg>
