<svg width="32" height="32" viewBox="0 0 32 32" fill="none" xmlns="http://www.w3.org/2000/svg">
<rect width="32" height="32" rx="16" fill="white"/>
<path d="M10.8899 13.4331C11.2551 13.4331 11.5513 13.1158 11.5513 12.7244C11.5513 12.333 11.2551 12.0156 10.8899 12.0156C10.5248 12.0156 10.2285 12.333 10.2285 12.7244C10.2285 13.1158 10.5248 13.4331 10.8899 13.4331Z" fill="#30B1E8"/>
<path d="M12.9309 13.4331C13.2961 13.4331 13.5923 13.1158 13.5923 12.7244C13.5923 12.333 13.2961 12.0156 12.9309 12.0156C12.5658 12.0156 12.2695 12.333 12.2695 12.7244C12.27 13.1158 12.5658 13.4331 12.9309 13.4331Z" fill="#30B1E8"/>
<path d="M14.9739 13.4331C15.3391 13.4331 15.6353 13.1158 15.6353 12.7244C15.6353 12.333 15.3391 12.0156 14.9739 12.0156C14.6088 12.0156 14.3125 12.333 14.3125 12.7244C14.3125 13.1158 14.6088 13.4331 14.9739 13.4331Z" fill="#30B1E8"/>
<path d="M21.9686 14.2848C21.7703 14.2337 21.5594 14.2074 21.3428 14.2074C20.372 14.2074 19.2944 14.7455 18.7623 16.0759C18.4694 16.838 18.4839 17.7259 18.8013 18.5115C19.0923 19.2324 19.6056 19.7729 20.2445 20.0321C21.5823 20.6232 23.1789 20.0574 23.8394 18.7702L22.7505 18.1918C22.3984 18.8977 21.6653 19.1026 21.0789 18.9863C20.5328 18.879 19.9244 18.4576 19.8559 17.5984L19.8498 17.5248H23.9308C23.9331 17.4985 23.9359 17.4727 23.9402 17.4493C23.9392 17.4184 23.943 17.371 23.9509 17.3213C24.0588 15.4829 22.9497 14.5355 21.9681 14.2843V14.2848H21.9686ZM19.9173 16.5605L19.9342 16.478C20.1039 15.6746 20.8169 15.3277 21.4084 15.3563C22.0844 15.3826 22.5813 15.8246 22.6745 16.4832L22.6858 16.561H19.9178L19.9173 16.5605ZM13.6464 14.2848C13.4481 14.2337 13.2372 14.2074 13.0206 14.2074C12.0498 14.2074 10.9722 14.7455 10.4402 16.0759C10.1472 16.838 10.1617 17.7259 10.4791 18.5115C10.7702 19.2324 11.2834 19.7729 11.9223 20.0321C13.2602 20.6232 14.8567 20.0574 15.5172 18.7702L14.4283 18.1918C14.0763 18.8977 13.3431 19.1026 12.7567 18.9863C12.2106 18.879 11.6022 18.4576 11.5338 17.5984L11.5277 17.5248H15.6086C15.6109 17.4985 15.6138 17.4727 15.618 17.4493C15.617 17.4184 15.6208 17.371 15.6287 17.3213C15.7366 15.4829 14.6275 14.5355 13.6459 14.2843V14.2848H13.6464ZM11.5952 16.5605L11.612 16.478C11.7817 15.6746 12.4933 15.3277 13.0863 15.3563C13.7622 15.3826 14.2591 15.8246 14.3523 16.4832L14.3636 16.561H11.5956L11.5952 16.5605ZM16.4613 20.0691H17.7808V11.7329H16.4613V20.0691ZM8.36406 15.8584L8.32141 15.8424V15.6568L8.35703 15.6385C9.04562 15.2837 9.42484 14.5946 9.37141 13.7954C9.31281 12.9151 8.75734 12.1716 7.95719 11.9007C7.66797 11.7887 7.35625 11.7324 7.02719 11.7324H4V20.0659C4.08625 20.0626 4.19219 20.0607 4.31266 20.0607C4.52547 20.0607 4.78563 20.0654 5.06781 20.0701C6.16609 20.0884 7.66937 20.1137 8.12313 19.9088C9.16187 19.5948 9.64469 18.6324 9.66625 17.8159C9.68922 16.9107 9.19047 16.1607 8.365 15.8588H8.36406V15.8584ZM5.36359 13.029H6.96109C7.30094 13.029 7.57188 13.1354 7.76688 13.3445C8.06875 13.6627 8.14609 14.1193 7.96891 14.5341C7.79453 14.941 7.42281 15.1918 7.00563 15.1918C6.97563 15.1918 6.94469 15.1909 6.91375 15.1876H5.36359V13.029ZM8.21219 18.0615C8.02797 18.4876 7.63844 18.7412 7.18 18.7412C7.14672 18.7412 7.11391 18.7402 7.07969 18.737H5.36359V16.4246H7.03844C7.45094 16.4246 7.76781 16.5366 7.98156 16.7574C8.31531 17.1198 8.40344 17.6195 8.21266 18.062V18.0615H8.21219ZM27.6334 18.8087C27.3409 18.9826 26.8792 18.9812 26.6706 18.7065C26.4939 18.5134 26.4737 18.2424 26.4686 17.9823V15.5963H27.7933V14.4066H26.4686V12.6324H25.1491V14.4071H24.1998V15.5968H25.1491V18.2612C25.1491 18.9071 25.3169 19.4115 25.6488 19.7584C26.2258 20.3902 27.2556 20.372 27.9995 20.0288L27.633 18.8091V18.8087H27.6334Z" fill="#30B1E8"/>
</svg>
