<svg width="32" height="32" viewBox="0 0 32 32" fill="none" xmlns="http://www.w3.org/2000/svg">
<rect width="32" height="32" rx="16" fill="white"/>
<path d="M24.4717 13.5301C22.4655 12.3489 20.4546 11.1864 18.4389 10.0192C17.0796 9.23168 15.7155 8.45824 14.3608 7.66606C13.9764 7.48324 13.8452 7.55824 13.8874 7.95199C13.8827 8.55199 13.8827 9.15668 13.8827 9.75668C13.8827 12.7332 13.9061 15.7098 13.8733 18.6864C13.8639 19.6192 13.803 20.5614 13.3249 21.4192C12.9311 22.1317 12.3264 22.5207 11.553 22.6473C10.728 22.7832 9.92175 22.1739 9.87019 21.3442C9.83737 20.8098 10.0858 20.3551 10.4514 19.9661C10.9389 19.4504 11.4967 19.0426 12.1811 18.8504C12.5139 18.7567 12.5467 18.5223 12.5327 18.2645C12.4905 17.5848 12.5139 16.9051 12.528 16.2254C12.5374 15.8317 12.4952 15.4332 12.4952 15.0395C12.4952 13.7598 12.4717 12.4801 12.5046 11.2004C12.528 10.2864 12.4952 9.37699 12.5186 8.46293C12.5327 7.91449 12.5139 7.35199 12.4952 6.79418C12.2936 6.43793 11.9233 6.27387 11.5342 6.20824C10.7374 6.03949 9.99675 6.22231 9.33112 6.68637C8.49206 7.32387 8.13581 8.16762 8.1405 9.19418C8.14987 11.9036 8.14987 14.6082 8.14987 17.3176C8.14987 19.1129 8.14987 20.9082 8.13112 22.7036C8.12175 23.5895 8.36081 24.3911 9.01237 24.9957C9.67331 25.6098 10.4655 25.9801 11.403 25.8161C11.6702 25.7692 11.928 25.6473 12.1717 25.5301C12.8936 25.1832 13.5639 24.7473 14.2577 24.3442C15.078 23.8661 15.8983 23.3879 16.7327 22.9332C17.0046 22.7832 17.1264 22.6286 17.1217 22.2957C17.1077 19.877 17.1171 17.4582 17.1171 15.0395C17.1171 14.6317 17.1171 14.2239 17.1171 13.8161C17.1171 13.652 17.0889 13.5067 17.3514 13.5067C17.5952 13.5067 17.6233 13.6098 17.6233 13.8161C17.6186 16.427 17.6186 19.0379 17.6186 21.6489C17.6186 21.7332 17.6186 21.8223 17.6186 21.9067C17.628 22.2067 17.7639 22.3004 18.0264 22.1692C18.378 21.9911 18.6967 21.752 19.0624 21.6067C19.2124 21.5457 19.1608 21.3817 19.1608 21.2598C19.1655 19.6051 19.1608 17.9504 19.1655 16.2957C19.1655 16.1598 19.0999 15.9911 19.3577 15.977C19.5921 15.9676 19.6717 16.0332 19.6671 16.277C19.6577 17.7301 19.6624 19.1786 19.6671 20.6317C19.6671 20.7723 19.6061 20.9504 19.7842 21.0348C19.9389 21.1098 20.0655 21.002 20.1967 20.9223C20.4171 20.7864 20.628 20.6411 20.8624 20.5379C21.1483 20.4114 21.2327 20.2286 21.228 19.9145C21.2092 18.4192 21.2233 16.9286 21.2186 15.4332C21.2186 15.2551 21.1952 15.1051 21.4671 15.1051C21.7342 15.1051 21.7202 15.2504 21.7202 15.4286C21.7155 16.7739 21.7155 18.1145 21.7202 19.4598C21.7202 19.9332 21.8046 19.9801 22.2171 19.7457C22.4467 19.6145 22.6671 19.4504 22.9108 19.3473C23.2014 19.2207 23.2577 19.0098 23.2483 18.7286C23.2342 18.4192 23.2577 18.1051 23.2436 17.7957C23.2342 17.5707 23.3608 17.5707 23.5249 17.5661C23.6983 17.5614 23.7827 17.6036 23.7733 17.7957C23.7592 17.9973 23.7686 18.2036 23.7733 18.4098C23.778 18.6723 23.9514 18.7332 24.1436 18.6395C24.9499 18.2411 25.5874 17.6457 25.8264 16.7645C25.878 16.3239 25.8686 15.8739 25.8733 15.4332C25.7092 14.6551 25.2171 13.9661 24.4717 13.5301ZM17.6186 12.2457C17.6186 12.2832 17.5905 12.3114 17.553 12.3114H17.1827C17.1452 12.3114 17.1171 12.2832 17.1171 12.2457V11.8754C17.1171 11.8379 17.1452 11.8098 17.1827 11.8098H17.553C17.5905 11.8098 17.6186 11.8379 17.6186 11.8754V12.2457ZM19.6624 14.7207C19.6624 14.7582 19.6342 14.7864 19.5967 14.7864H19.2264C19.1889 14.7864 19.1608 14.7582 19.1608 14.7207V14.3504C19.1608 14.3129 19.1889 14.2848 19.2264 14.2848H19.5967C19.6342 14.2848 19.6624 14.3129 19.6624 14.3504V14.7207ZM21.7249 13.8629C21.7249 13.9004 21.6967 13.9286 21.6592 13.9286H21.2702C21.2327 13.9286 21.2046 13.9004 21.2046 13.8629V13.4739C21.2046 13.4364 21.2327 13.4082 21.2702 13.4082H21.6592C21.6967 13.4082 21.7249 13.4364 21.7249 13.4739V13.8629ZM23.7592 16.2911C23.7592 16.3286 23.7311 16.3567 23.6936 16.3567H23.3046C23.2671 16.3567 23.2389 16.3286 23.2389 16.2911V15.902C23.2389 15.8645 23.2671 15.8364 23.3046 15.8364H23.6936C23.7311 15.8364 23.7592 15.8645 23.7592 15.902V16.2911Z" fill="#30B1E8"/>
</svg>
