<svg width="32" height="32" viewBox="0 0 32 32" fill="none" xmlns="http://www.w3.org/2000/svg">
<rect width="32" height="32" rx="16" fill="white"/>
<path d="M22.0938 6.15625H9.90625C7.83437 6.15625 6.15625 7.83437 6.15625 9.90625V22.0938C6.15625 24.1656 7.83437 25.8438 9.90625 25.8438H22.0938C24.1656 25.8438 25.8438 24.1656 25.8438 22.0938V9.90625C25.8438 7.83437 24.1656 6.15625 22.0938 6.15625ZM19.8109 16.2297C17.8375 17.6922 13.375 20.9922 13.375 20.9922V11.0078C13.375 11.0078 17.8328 14.3125 19.8063 15.775C19.9609 15.8875 20.0312 15.9438 20.0219 16.0047C20.0359 16.0609 19.9656 16.1125 19.8109 16.2297ZM17.7484 15.7422L18.0719 16.0047L17.7484 16.2625L17.4719 15.9859L17.7484 15.7422ZM16.4172 17.4484C16.4688 17.5047 16.5203 17.5609 16.5953 17.6406C16.5203 17.7063 16.4594 17.7719 16.3891 17.8234C16.1031 18.0391 15.8078 18.2453 15.5266 18.4703C15.3766 18.5875 15.2688 18.5875 15.1609 18.4281C15.1516 18.4141 15.1375 18.4047 15.1281 18.3953C14.6031 17.8516 14.6031 17.8516 14.6594 17.1016C14.6687 17.0031 14.7297 16.9094 14.7859 16.7547C15.0578 17.0406 15.2922 17.275 15.5078 17.5234C15.5359 17.5562 15.475 17.6594 15.4609 17.7297C15.4281 17.7391 15.4 17.7437 15.3672 17.7531C15.2266 17.5891 15.0859 17.425 14.8984 17.2141C14.8562 17.4578 14.8141 17.6266 14.9453 17.7953C15.3016 18.2547 15.3016 18.2547 15.775 17.9219C16.2203 17.6125 16.2203 17.6125 15.8359 17.2281C15.5453 16.9375 15.25 16.6422 14.9594 16.3469C14.8609 16.2437 14.8 16.2578 14.6922 16.3516C14.3828 16.6234 14.2563 16.9469 14.2797 17.3641C14.3078 17.8234 14.2844 18.2828 14.2797 18.7469C14.2797 18.8359 14.2797 18.925 14.2797 19.0141C14.3031 19.0234 14.3219 19.0328 14.3453 19.0422C14.5328 18.9016 14.7203 18.7563 14.9219 18.6063C14.9734 18.6625 15.0203 18.7094 15.0906 18.7891C14.8 19 14.5375 19.2156 14.2469 19.3937C14.0969 19.4875 14.0031 19.3703 14.0031 19.2203C14.0078 18.4 14.0031 17.5797 14.0406 16.7594C14.05 16.6047 14.2281 16.45 14.3453 16.3094C14.5047 16.1313 14.5844 16.0563 14.5938 15.9906C14.5891 15.925 14.5047 15.85 14.3453 15.6672C14.2234 15.5312 14.0453 15.3719 14.0406 15.2172C14.0031 14.3969 14.0078 13.5766 14.0031 12.7563C14.0031 12.6063 14.0969 12.4891 14.2469 12.5828C14.5328 12.7656 14.8 12.9766 15.0906 13.1875C15.0203 13.2625 14.9734 13.3141 14.9219 13.3703C14.7203 13.2156 14.5328 13.075 14.3453 12.9344C14.3219 12.9438 14.3031 12.9531 14.2797 12.9672C14.2797 13.0563 14.2797 13.1453 14.2797 13.2344C14.2797 13.6937 14.3031 14.1578 14.2797 14.6172C14.2563 15.0344 14.3828 15.3578 14.6922 15.6297C14.8 15.7234 14.8609 15.7375 14.9594 15.6344C15.2453 15.3344 15.5406 15.0437 15.8359 14.7531C16.2203 14.3687 16.2203 14.3688 15.775 14.0594C15.2969 13.7266 15.3016 13.7313 14.9453 14.1859C14.8141 14.3547 14.8562 14.5234 14.8984 14.7672C15.0813 14.5562 15.2219 14.3922 15.3672 14.2281C15.4 14.2375 15.4281 14.2422 15.4609 14.2516C15.4797 14.3219 15.5359 14.4297 15.5078 14.4578C15.2875 14.7063 15.0578 14.9453 14.7859 15.2266C14.7297 15.0719 14.6687 14.9781 14.6594 14.8797C14.6031 14.1344 14.6078 14.1344 15.1281 13.5859C15.1375 13.5766 15.1516 13.5625 15.1609 13.5531C15.2688 13.3938 15.3766 13.3937 15.5266 13.5109C15.8078 13.7359 16.1031 13.9375 16.3891 14.1578C16.4594 14.2094 16.525 14.275 16.5953 14.3406C16.525 14.4203 16.4734 14.4766 16.4172 14.5328C16.0187 14.95 15.625 15.3766 15.2172 15.7844C15.1422 15.8594 15.1047 15.9203 15.1047 15.9813C15.1047 16.0422 15.1422 16.1031 15.2172 16.1781C15.625 16.6094 16.0187 17.0312 16.4172 17.4484ZM16.3609 16.2391C16.6516 16.5438 16.9422 16.8438 17.2609 17.1719C17.1484 17.2609 17.0734 17.3219 16.9797 17.3969C16.5719 16.9562 16.1734 16.5297 15.7844 16.0938C15.7703 16.0797 15.7656 16.0422 15.7703 16.0047C15.7656 15.9672 15.7703 15.9344 15.7844 15.9156C16.1734 15.4797 16.5719 15.0531 16.9797 14.6125C17.0734 14.6875 17.1531 14.7484 17.2609 14.8375C16.9469 15.1656 16.6516 15.4656 16.3609 15.7703C16.2484 15.8875 16.1875 15.9484 16.1875 16.0094C16.1875 16.0609 16.2484 16.1172 16.3609 16.2391ZM18.5734 15.7656C18.3016 15.5547 18.0203 15.3578 17.7531 15.1516C17.65 15.0719 17.5844 15.0859 17.5 15.1797C17.2844 15.4141 17.0641 15.6484 16.8438 15.8734C16.7969 15.9203 16.7781 15.9625 16.7781 16C16.7781 16.0422 16.7969 16.0797 16.8438 16.1266C17.0688 16.3563 17.2891 16.5859 17.5 16.8203C17.5844 16.9141 17.65 16.9281 17.7531 16.8484C18.025 16.6375 18.3062 16.4453 18.5734 16.2344C18.6391 16.1828 18.7469 16.1125 18.7469 16C18.7469 15.8828 18.6437 15.8172 18.5734 15.7656ZM18.0578 16.3703C17.6406 16.6937 17.7578 16.7266 17.3781 16.3094C17.2141 16.1313 17.1344 16.0703 17.1391 16C17.1344 15.9297 17.2141 15.8687 17.3781 15.6906C17.7578 15.2734 17.6406 15.3063 18.0578 15.6297C18.2969 15.8172 18.4141 15.9109 18.4094 16C18.4141 16.0938 18.2922 16.1828 18.0578 16.3703Z" fill="#30B1E8"/>
</svg>
