<svg width="108" height="24" viewBox="0 0 108 24" fill="none" xmlns="http://www.w3.org/2000/svg">
<path d="M1.54 17C1.43733 17 1.358 16.972 1.302 16.916C1.246 16.8507 1.218 16.7713 1.218 16.678V7.536C1.218 7.43333 1.246 7.354 1.302 7.298C1.358 7.23267 1.43733 7.2 1.54 7.2H5.376C6.076 7.2 6.64533 7.31667 7.084 7.55C7.532 7.774 7.85867 8.082 8.064 8.474C8.27867 8.866 8.386 9.30467 8.386 9.79C8.386 10.1727 8.32067 10.504 8.19 10.784C8.06867 11.0547 7.91467 11.2787 7.728 11.456C7.54133 11.624 7.35933 11.7547 7.182 11.848C7.546 12.0253 7.868 12.3147 8.148 12.716C8.43733 13.1173 8.582 13.6027 8.582 14.172C8.582 14.6853 8.46533 15.1567 8.232 15.586C7.99867 16.0153 7.64867 16.3607 7.182 16.622C6.72467 16.874 6.16 17 5.488 17H1.54ZM2.59 15.866H5.306C5.90333 15.866 6.36533 15.7027 6.692 15.376C7.01867 15.0493 7.182 14.648 7.182 14.172C7.182 13.6773 7.01867 13.2713 6.692 12.954C6.36533 12.6273 5.90333 12.464 5.306 12.464H2.59V15.866ZM2.59 11.344H5.166C5.76333 11.344 6.216 11.2087 6.524 10.938C6.832 10.658 6.986 10.28 6.986 9.804C6.986 9.328 6.832 8.964 6.524 8.712C6.216 8.46 5.76333 8.334 5.166 8.334H2.59V11.344ZM9.52219 17C9.44752 17 9.38219 16.972 9.32619 16.916C9.27019 16.86 9.24219 16.7947 9.24219 16.72C9.24219 16.6733 9.24685 16.622 9.25619 16.566L12.7282 7.508C12.7655 7.41467 12.8169 7.34 12.8822 7.284C12.9475 7.228 13.0455 7.2 13.1762 7.2H14.1282C14.2589 7.2 14.3569 7.228 14.4222 7.284C14.4875 7.34 14.5389 7.41467 14.5762 7.508L18.0342 16.566C18.0529 16.622 18.0622 16.6733 18.0622 16.72C18.0622 16.7947 18.0342 16.86 17.9782 16.916C17.9222 16.972 17.8569 17 17.7822 17H17.0682C16.9562 17 16.8722 16.972 16.8162 16.916C16.7695 16.86 16.7369 16.8087 16.7182 16.762L15.9482 14.774H11.3562L10.5862 16.762C10.5769 16.8087 10.5442 16.86 10.4882 16.916C10.4322 16.972 10.3482 17 10.2362 17H9.52219ZM11.7622 13.57H15.5422L13.6522 8.6L11.7622 13.57ZM22.6294 17.14C21.7707 17.14 21.0567 16.9813 20.4874 16.664C19.9274 16.3467 19.5027 15.9033 19.2134 15.334C18.924 14.7647 18.7654 14.102 18.7374 13.346C18.728 12.9633 18.7234 12.5527 18.7234 12.114C18.7234 11.6753 18.728 11.2553 18.7374 10.854C18.7654 10.098 18.924 9.43533 19.2134 8.866C19.5027 8.29667 19.9274 7.85333 20.4874 7.536C21.0567 7.21867 21.7707 7.06 22.6294 7.06C23.2734 7.06 23.838 7.14867 24.3234 7.326C24.8087 7.50333 25.21 7.74133 25.5274 8.04C25.854 8.33867 26.1014 8.67467 26.2694 9.048C26.4374 9.412 26.5307 9.79 26.5494 10.182C26.5587 10.266 26.5307 10.336 26.4654 10.392C26.4094 10.448 26.3394 10.476 26.2554 10.476H25.4854C25.4014 10.476 25.3267 10.4527 25.2614 10.406C25.2054 10.3593 25.1634 10.2753 25.1354 10.154C24.9767 9.426 24.678 8.92667 24.2394 8.656C23.81 8.38533 23.2734 8.25 22.6294 8.25C21.8734 8.25 21.276 8.46467 20.8374 8.894C20.3987 9.314 20.1654 9.99067 20.1374 10.924C20.1094 11.6893 20.1094 12.4733 20.1374 13.276C20.1654 14.2093 20.3987 14.8907 20.8374 15.32C21.276 15.74 21.8734 15.95 22.6294 15.95C23.2734 15.95 23.81 15.8147 24.2394 15.544C24.678 15.2733 24.9767 14.774 25.1354 14.046C25.1634 13.9247 25.2054 13.8407 25.2614 13.794C25.3267 13.7473 25.4014 13.724 25.4854 13.724H26.2554C26.3394 13.724 26.4094 13.752 26.4654 13.808C26.5307 13.8547 26.5587 13.92 26.5494 14.004C26.5307 14.396 26.4374 14.7787 26.2694 15.152C26.1014 15.5253 25.854 15.8613 25.5274 16.16C25.21 16.4587 24.8087 16.6967 24.3234 16.874C23.838 17.0513 23.2734 17.14 22.6294 17.14ZM28.4676 17C28.3649 17 28.2856 16.972 28.2296 16.916C28.1736 16.8507 28.1456 16.7713 28.1456 16.678V7.536C28.1456 7.43333 28.1736 7.354 28.2296 7.298C28.2856 7.23267 28.3649 7.2 28.4676 7.2H29.1676C29.2702 7.2 29.3496 7.23267 29.4056 7.298C29.4709 7.354 29.5036 7.43333 29.5036 7.536V11.008L33.2416 7.424C33.2789 7.38667 33.3396 7.34 33.4236 7.284C33.5169 7.228 33.6382 7.2 33.7876 7.2H34.5436C34.6182 7.2 34.6836 7.228 34.7396 7.284C34.7956 7.34 34.8236 7.40533 34.8236 7.48C34.8236 7.55467 34.8049 7.61533 34.7676 7.662L30.4416 11.89L35.0476 16.524C35.0942 16.58 35.1176 16.6453 35.1176 16.72C35.1176 16.7947 35.0896 16.86 35.0336 16.916C34.9776 16.972 34.9122 17 34.8376 17H34.0536C33.8949 17 33.7736 16.972 33.6896 16.916C33.6056 16.8507 33.5449 16.7993 33.5076 16.762L29.5036 12.828V16.678C29.5036 16.7713 29.4709 16.8507 29.4056 16.916C29.3496 16.972 29.2702 17 29.1676 17H28.4676ZM41.3972 17C41.3039 17 41.2246 16.972 41.1592 16.916C41.1032 16.8507 41.0752 16.7713 41.0752 16.678V8.446H38.3872C38.2939 8.446 38.2146 8.418 38.1492 8.362C38.0932 8.29667 38.0652 8.21733 38.0652 8.124V7.536C38.0652 7.43333 38.0932 7.354 38.1492 7.298C38.2146 7.23267 38.2939 7.2 38.3872 7.2H45.1352C45.2379 7.2 45.3172 7.23267 45.3732 7.298C45.4386 7.354 45.4712 7.43333 45.4712 7.536V8.124C45.4712 8.21733 45.4386 8.29667 45.3732 8.362C45.3172 8.418 45.2379 8.446 45.1352 8.446H42.4612V16.678C42.4612 16.7713 42.4286 16.8507 42.3632 16.916C42.3072 16.972 42.2279 17 42.1252 17H41.3972ZM50.0836 17.14C49.2809 17.14 48.5949 17.0047 48.0256 16.734C47.4562 16.454 47.0176 16.0293 46.7096 15.46C46.4016 14.8813 46.2289 14.158 46.1916 13.29C46.1822 12.8793 46.1776 12.4873 46.1776 12.114C46.1776 11.7313 46.1822 11.3347 46.1916 10.924C46.2289 10.0653 46.4062 9.35133 46.7236 8.782C47.0502 8.20333 47.4982 7.774 48.0676 7.494C48.6462 7.20467 49.3182 7.06 50.0836 7.06C50.8396 7.06 51.5022 7.20467 52.0716 7.494C52.6502 7.774 53.1029 8.20333 53.4296 8.782C53.7562 9.35133 53.9336 10.0653 53.9616 10.924C53.9802 11.3347 53.9896 11.7313 53.9896 12.114C53.9896 12.4873 53.9802 12.8793 53.9616 13.29C53.9336 14.158 53.7609 14.8813 53.4436 15.46C53.1356 16.0293 52.6969 16.454 52.1276 16.734C51.5582 17.0047 50.8769 17.14 50.0836 17.14ZM50.0836 15.95C50.7929 15.95 51.3716 15.7353 51.8196 15.306C52.2769 14.8767 52.5242 14.1813 52.5616 13.22C52.5802 12.8 52.5896 12.4267 52.5896 12.1C52.5896 11.764 52.5802 11.3907 52.5616 10.98C52.5429 10.336 52.4216 9.81333 52.1976 9.412C51.9829 9.01067 51.6936 8.71667 51.3296 8.53C50.9656 8.34333 50.5502 8.25 50.0836 8.25C49.6169 8.25 49.2016 8.34333 48.8376 8.53C48.4736 8.71667 48.1796 9.01067 47.9556 9.412C47.7409 9.81333 47.6196 10.336 47.5916 10.98C47.5822 11.3907 47.5776 11.764 47.5776 12.1C47.5776 12.4267 47.5822 12.8 47.5916 13.22C47.6289 14.1813 47.8762 14.8767 48.3336 15.306C48.7909 15.7353 49.3742 15.95 50.0836 15.95ZM61.0104 17C60.917 17 60.8377 16.972 60.7724 16.916C60.7164 16.8507 60.6884 16.7713 60.6884 16.678V8.446H58.0004C57.907 8.446 57.8277 8.418 57.7624 8.362C57.7064 8.29667 57.6784 8.21733 57.6784 8.124V7.536C57.6784 7.43333 57.7064 7.354 57.7624 7.298C57.8277 7.23267 57.907 7.2 58.0004 7.2H64.7484C64.851 7.2 64.9304 7.23267 64.9864 7.298C65.0517 7.354 65.0844 7.43333 65.0844 7.536V8.124C65.0844 8.21733 65.0517 8.29667 64.9864 8.362C64.9304 8.418 64.851 8.446 64.7484 8.446H62.0744V16.678C62.0744 16.7713 62.0417 16.8507 61.9764 16.916C61.9204 16.972 61.841 17 61.7384 17H61.0104ZM69.6967 17.14C68.894 17.14 68.208 17.0047 67.6387 16.734C67.0694 16.454 66.6307 16.0293 66.3227 15.46C66.0147 14.8813 65.842 14.158 65.8047 13.29C65.7954 12.8793 65.7907 12.4873 65.7907 12.114C65.7907 11.7313 65.7954 11.3347 65.8047 10.924C65.842 10.0653 66.0194 9.35133 66.3367 8.782C66.6634 8.20333 67.1114 7.774 67.6807 7.494C68.2594 7.20467 68.9314 7.06 69.6967 7.06C70.4527 7.06 71.1154 7.20467 71.6847 7.494C72.2634 7.774 72.716 8.20333 73.0427 8.782C73.3694 9.35133 73.5467 10.0653 73.5747 10.924C73.5934 11.3347 73.6027 11.7313 73.6027 12.114C73.6027 12.4873 73.5934 12.8793 73.5747 13.29C73.5467 14.158 73.374 14.8813 73.0567 15.46C72.7487 16.0293 72.31 16.454 71.7407 16.734C71.1714 17.0047 70.49 17.14 69.6967 17.14ZM69.6967 15.95C70.406 15.95 70.9847 15.7353 71.4327 15.306C71.89 14.8767 72.1374 14.1813 72.1747 13.22C72.1934 12.8 72.2027 12.4267 72.2027 12.1C72.2027 11.764 72.1934 11.3907 72.1747 10.98C72.156 10.336 72.0347 9.81333 71.8107 9.412C71.596 9.01067 71.3067 8.71667 70.9427 8.53C70.5787 8.34333 70.1634 8.25 69.6967 8.25C69.23 8.25 68.8147 8.34333 68.4507 8.53C68.0867 8.71667 67.7927 9.01067 67.5687 9.412C67.354 9.81333 67.2327 10.336 67.2047 10.98C67.1954 11.3907 67.1907 11.764 67.1907 12.1C67.1907 12.4267 67.1954 12.8 67.2047 13.22C67.242 14.1813 67.4894 14.8767 67.9467 15.306C68.404 15.7353 68.9874 15.95 69.6967 15.95ZM75.6853 17C75.5826 17 75.5033 16.972 75.4473 16.916C75.3913 16.8507 75.3633 16.7713 75.3633 16.678V7.536C75.3633 7.43333 75.3913 7.354 75.4473 7.298C75.5033 7.23267 75.5826 7.2 75.6853 7.2H79.2413C79.932 7.2 80.5293 7.312 81.0333 7.536C81.5466 7.76 81.9433 8.096 82.2233 8.544C82.5033 8.98267 82.6433 9.53333 82.6433 10.196C82.6433 10.8587 82.5033 11.4093 82.2233 11.848C81.9433 12.2867 81.5466 12.618 81.0333 12.842C80.5293 13.066 79.932 13.178 79.2413 13.178H76.7633V16.678C76.7633 16.7713 76.7306 16.8507 76.6653 16.916C76.6093 16.972 76.53 17 76.4273 17H75.6853ZM76.7493 12.002H79.1713C79.862 12.002 80.38 11.848 80.7253 11.54C81.0706 11.232 81.2433 10.784 81.2433 10.196C81.2433 9.61733 81.0753 9.16933 80.7393 8.852C80.4033 8.53467 79.8806 8.376 79.1713 8.376H76.7493V12.002Z" fill="#ACDAEE"/>
<path d="M95.9998 20V4M95.9998 4L92 9M95.9998 4L100 9" stroke="#ACDAEE" stroke-width="1.5"/>
</svg>
